<svg width="192" height="192" viewBox="0 0 192 192" fill="none" xmlns="http://www.w3.org/2000/svg">
<g clip-path="url(#clip0_3160_67)">
<path d="M192 0H0V192H192V0Z" fill="#130D0E"/>
<path fill-rule="evenodd" clip-rule="evenodd" d="M32 85.704C39.3976 94.3236 47.6253 95.888 56.9208 88.3709C60.5405 85.1696 78.3998 67.1878 95.5478 84.6351C107.115 73.146 119.818 75.2952 133.284 86.593C138.387 90.6836 146.694 99.5844 159.273 86.0585C158.264 104.451 142.303 117.324 118.332 114.005C108.683 112.429 101.399 107.034 95.7257 100.473C84.084 112.666 75.9794 117.42 54.251 112.936C39.5343 108.243 33.0704 99.7644 32 85.704Z" fill="white"/>
</g>
<defs>
<clipPath id="clip0_3160_67">
<rect width="192" height="192" fill="white"/>
</clipPath>
</defs>
</svg>
