<svg width="40" height="41" viewBox="0 0 40 41" fill="none" xmlns="http://www.w3.org/2000/svg">
<path d="M18.4154 13.7061L18.4154 1.53711L12.8825 1.53711C6.44943 1.53711 1.23437 6.85246 1.23437 13.4093L1.23437 19.0485L13.1737 19.0485C16.0686 19.0485 18.4154 16.6566 18.4154 13.7061Z" fill="white"/>
<path d="M1.23437 22.0166L1.23437 27.6558C1.23437 34.2127 6.44943 39.528 12.8825 39.528L18.4154 39.528L18.4154 27.359C18.4154 24.4085 16.0686 22.0166 13.1737 22.0166L1.23437 22.0166Z" fill="white"/>
<path d="M21.3274 39.528L38.5085 39.528L38.5085 22.0166L26.5691 22.0166C23.6742 22.0166 21.3274 24.4085 21.3274 27.359L21.3274 39.528Z" fill="white"/>
<path d="M38.5085 19.0485L38.5085 13.4093C38.5085 6.85246 33.2934 1.53711 26.8603 1.53711L21.3274 1.53711L21.3274 13.7061C21.3274 16.6566 23.6742 19.0485 26.5691 19.0485L38.5085 19.0485Z" fill="white"/>
</svg>
