<svg width="726" height="200" viewBox="0 0 726 200" fill="none" xmlns="http://www.w3.org/2000/svg">
<path d="M235.082 162.1H212.844V196.759H182.61V162.1H89.9102V134.174L172.616 14.4908H212.844V134.174H235.082V162.1ZM123.892 134.174H182.61V48.8997L123.892 134.174Z" fill="#9886FE"/>
<path d="M248.252 105.999C248.252 49.3984 278.735 11 325.46 11C372.185 11 402.919 49.3984 402.919 105.999C402.919 162.35 373.934 200 325.46 200C276.986 200 248.252 162.35 248.252 105.999ZM279.735 105.999C279.735 148.137 296.726 171.825 325.46 171.825C354.445 171.825 371.436 148.137 371.436 105.999C371.436 62.8628 354.445 39.1755 325.46 39.1755C296.726 39.1755 279.735 62.8628 279.735 105.999Z" fill="#9886FE"/>
<path d="M558.91 162.1H536.672V196.759H506.438V162.1H413.738V134.174L496.444 14.4908H536.672V134.174H558.91V162.1ZM447.72 134.174H506.438V48.8997L447.72 134.174Z" fill="#9886FE"/>
<path d="M31.5425 83.8332C30.641 76.154 36.1354 69.1979 43.8147 68.2964L83.5419 63.6327C91.2211 62.7312 98.1772 68.2257 99.0787 75.9049C99.9802 83.5842 94.4857 90.5403 86.8065 91.4418L47.0793 96.1055C39.4 97.0069 32.4439 91.5125 31.5425 83.8332Z" fill="#FFD86F"/>
<path d="M55.6857 86.0336L49.5538 86.7535L48.3736 76.7005L54.5055 75.9807L54.6524 77.2321L49.8832 77.792L50.2521 80.9344L54.5486 80.43L54.6906 81.6397L50.3941 82.1441L50.7679 85.3282L55.5371 84.7683L55.6857 86.0336ZM60.5263 78.516L60.6667 79.7118L60.0827 79.7803C58.8452 79.9256 58.1686 80.7662 58.322 82.0733L58.7448 85.6745L57.4377 85.828L56.6412 79.0426L57.8648 78.8989L58.069 79.9181C58.2638 79.1763 58.8897 78.6235 59.8213 78.5142C60.0576 78.4864 60.2556 78.4914 60.5263 78.516ZM65.6454 77.915L65.7858 79.1108L65.2018 79.1794C63.9643 79.3247 63.2877 80.1653 63.4411 81.4723L63.8639 85.0736L62.5569 85.227L61.7603 78.4416L62.9839 78.298L63.1881 79.3171C63.383 78.5753 64.0088 78.0226 64.9404 77.9132C65.1768 77.8855 65.3747 77.8904 65.6454 77.915ZM66.5868 81.3004C66.3403 79.2008 67.6689 77.5506 69.7129 77.3107C71.743 77.0724 73.4177 78.37 73.6642 80.4695C73.9106 82.5691 72.582 84.2193 70.5519 84.4576C68.5079 84.6975 66.8332 83.4 66.5868 81.3004ZM67.9077 81.1453C68.0742 82.5636 69.0939 83.4447 70.4148 83.2896C71.7218 83.1362 72.5236 82.0412 72.3571 80.623C72.1906 79.2047 71.157 78.3252 69.85 78.4787C68.5291 78.6337 67.7412 79.727 67.9077 81.1453ZM78.5994 76.3943L78.7398 77.5901L78.1558 77.6587C76.9183 77.8039 76.2417 78.6446 76.3952 79.9516L76.8179 83.5529L75.5109 83.7063L74.7143 76.9209L75.9379 76.7772L76.1422 77.7964C76.337 77.0546 76.9628 76.5019 77.8944 76.3925C78.1308 76.3648 78.3287 76.3697 78.5994 76.3943ZM81.8749 79.9003L80.8598 80.0195C80.5984 78.993 80.2839 77.1551 80.0717 75.3475L79.7975 73.0116L81.2992 72.8353L81.5734 75.1712C81.7889 77.0066 81.8931 78.8551 81.8749 79.9003ZM81.7514 83.1711C81.1952 83.2363 80.698 82.8436 80.6343 82.3014C80.5707 81.7591 80.9634 81.2619 81.5196 81.1966C82.0479 81.1346 82.559 81.5257 82.6227 82.0679C82.6863 82.6102 82.2797 83.109 81.7514 83.1711Z" fill="#120A0B"/>
<path d="M28.6028 27.1747C28.4703 29.5521 28.4436 31.1104 28.0228 31.2079C27.4616 31.338 26.2126 30.3342 26.0866 29.7906C25.8061 28.5807 26.7455 24.9815 25.8519 20.5693C25.4158 20.2824 25.0687 19.901 25.024 19.7081C24.8329 18.8839 27.1048 17.5257 28.6479 17.168C31.5236 16.5012 33.5391 17.623 33.9985 19.6045C34.6123 22.2522 32.23 25.2066 28.6173 26.8387C28.6242 26.948 28.6135 27.0614 28.6028 27.1747ZM28.5969 21.4111C28.7717 22.1651 28.7981 22.9166 28.7511 24.3872C30.5981 23.109 31.8175 21.5144 31.5207 20.2343C31.3459 19.4803 30.5927 19.1007 29.8387 19.2755C29.0145 19.4665 28.4511 19.9852 27.9901 20.3877C28.2859 20.7072 28.5156 21.0604 28.5969 21.4111ZM42.6598 21.0331C42.7615 21.4715 42.6718 22.1206 42.4956 22.7157C42.7292 22.8463 42.8926 22.9932 42.921 23.116C43.043 23.642 42.8587 24.2021 42.9263 25.6092C42.9854 26.7411 43.1241 27.8176 42.5981 27.9396C42.1773 28.0371 41.4495 27.4483 40.9979 26.5367C40.2881 27.6991 39.4418 28.6713 38.6177 28.8624C37.6357 29.0901 35.785 28.041 35.5532 27.0415C35.1508 25.3055 36.6602 19.7819 39.4132 19.1436C40.3425 18.9281 42.4037 19.9285 42.6598 21.0331ZM37.7194 26.5023C37.7641 26.6952 37.8073 26.7221 38.0353 26.6693C38.7192 26.5107 40.6562 24.8236 40.5688 22.5342C40.5498 22.3723 40.6387 22.2778 40.81 22.2196C40.6245 21.5789 40.4555 21.2486 40.2451 21.2974C38.7021 21.6551 37.508 25.5905 37.7194 26.5023ZM50.7726 20.0207C50.8092 20.1785 50.8282 20.3404 50.8432 20.4847C51.0417 20.6235 51.1957 20.8095 51.2445 21.0199C51.3298 21.3882 51.2965 21.8024 51.1621 22.2585C50.6672 25.1449 51.9371 30.7817 48.4301 31.5948C46.7117 31.9932 45.0592 30.8427 44.8966 30.1413C44.7461 29.4925 45.0664 28.6422 45.4697 28.5487C46.1185 28.3983 46.8798 30.088 48.0195 29.8238C48.9489 29.6083 48.9281 27.7654 48.9638 25.6876C48.333 26.3143 47.6791 26.7615 47.1706 26.8794C46.1886 27.1071 44.7236 25.9686 44.4919 24.9691C44.0894 23.2331 45.1079 17.8233 47.8609 17.185C49.7196 16.7541 50.4717 18.7231 50.7726 20.0207ZM46.6406 24.434C46.6772 24.5918 46.711 24.6578 46.8863 24.6172C47.5 24.4749 49.1751 22.5344 49.4178 21.1108C49.3934 21.0056 49.369 20.9004 49.3406 20.7777C49.1779 20.0763 48.9909 19.2697 48.5 19.3835C47.255 19.6721 46.4292 23.5221 46.6406 24.434ZM56.2329 15.244C57.9337 14.8497 59.7878 16.4708 60.0968 17.8035C60.3691 18.9783 58.6842 20.4776 56.9132 20.8882C56.1417 21.0671 55.4942 21.1433 54.9963 21.1479C54.9643 21.4879 54.9849 21.8157 55.0458 22.0787C55.1922 22.71 55.3139 22.9959 56.2082 22.7885C58.4176 22.2763 58.8298 21.6634 59.3208 21.5495C59.8644 21.4235 60.0844 21.5757 60.1495 21.8563C60.3609 22.7681 58.7865 24.1863 57.0155 24.5969C54.7009 25.1336 53.225 23.8682 52.8387 22.2024C52.2615 19.7124 54.1287 15.7319 56.2329 15.244ZM56.8381 17.3764C56.2419 17.5146 55.6803 18.4394 55.3306 19.4813C55.4924 19.4622 55.6502 19.4257 55.7905 19.3931C56.9478 19.1248 58.1562 18.6784 57.9977 17.9945C57.9448 17.7665 57.1537 17.3032 56.8381 17.3764ZM13.0717 49.331C13.157 49.6992 13.2947 51.0901 13.2342 52.5823C13.9105 50.3191 14.8641 47.4188 15.846 47.1911C17.1085 46.8984 18.4602 48.0263 18.7366 49.2186C18.9521 50.148 19.0331 51.5335 18.9548 52.7896C18.8513 54.4951 18.3821 56.1375 17.558 56.3285C17.1898 56.4139 16.913 56.2563 16.7707 55.6426C16.6285 55.0289 16.6948 53.9603 16.7599 52.9659C16.7955 52.1631 16.808 51.1809 16.6901 50.6724C16.5925 50.2516 16.5153 49.9184 16.34 49.9591C15.6561 50.1176 15.0192 52.6304 14.5042 54.3943C14.1843 55.4847 13.6302 57.2392 12.8236 57.4262C12.2975 57.5482 11.0485 56.5443 10.9672 56.1936C10.8981 55.8955 11.0809 55.1695 11.1663 54.2628C11.2687 52.8717 10.9989 51.5484 10.8305 50.4234C10.6376 49.1932 10.4478 48.2948 10.8161 48.2095C11.7629 47.9899 12.9416 48.7699 13.0717 49.331ZM26.9331 47.8542C27.5957 50.7124 26.1801 54.3295 23.4797 54.9556C22.2172 55.2483 20.8117 54.2069 20.4295 52.5586C19.7384 49.5776 21.3078 45.9063 23.0963 45.4917C24.8674 45.0811 26.5712 46.2936 26.9331 47.8542ZM23.9829 47.0045C23.0866 47.8406 22.4255 50.4883 22.7101 51.7157C22.8443 52.2944 23.0041 52.904 23.2579 53.1223C24.4524 52.2172 24.9734 49.8421 24.6807 48.5796C24.5791 48.1412 24.3489 47.3077 23.9829 47.0045ZM33.4863 43.3599C34.4157 43.1445 34.8543 43.283 34.9397 43.6512C35.0738 44.2299 33.7793 44.8626 32.1246 45.6158C32.0649 46.5535 31.9741 47.5169 31.921 48.3237C31.8412 49.4139 31.7128 50.5339 31.7616 50.7443C31.786 50.8495 31.8386 50.8373 31.9964 50.8007C32.6802 50.6422 34.093 49.4832 34.5489 49.3775C34.9171 49.2921 35.036 49.4862 35.1092 49.8019C35.2962 50.6085 33.8263 52.5568 32.0202 52.9755C31.3363 53.1341 29.6924 52.499 29.4851 51.6047C29.3062 50.8332 29.57 48.9427 29.6946 46.7704C29.2847 46.9948 28.9503 47.1463 28.7574 47.191C28.2138 47.317 27.3915 46.6392 27.2573 46.0606C27.1679 45.6748 28.2304 45.0774 29.7557 44.4836C29.7291 43.492 29.6457 42.495 29.4343 41.5832C29.3612 41.2676 29.4351 41.0287 29.8384 40.9352C30.3469 40.8173 31.9098 41.3419 32.1009 42.166C32.1822 42.5167 32.2165 43.0631 32.2144 43.6918C32.6312 43.5767 33.0655 43.4575 33.4863 43.3599ZM43.06 43.1359C43.4173 42.9237 43.8973 42.6831 44.4341 42.4478C44.0922 37.9446 44.6511 35.6532 47.0008 35.1084C48.0529 34.8645 49.4691 35.7926 49.8228 37.3182C50.0464 38.2826 49.8649 38.9344 49.3388 39.0564C48.3218 39.2922 48.0403 37.1217 47.374 37.2761C46.7077 37.4306 46.7343 39.6972 46.7497 41.5968C47.4079 41.4072 48.0836 41.2136 48.7675 41.0551C49.6793 40.8437 50.1598 41.0833 50.2412 41.434C50.4322 42.2582 48.5415 43.0291 46.7478 43.7406C46.731 47.015 46.7969 49.5311 46.0254 49.71C45.5695 49.8157 44.5662 48.9951 44.4565 48.5217C44.3426 48.0307 44.6669 47.1979 44.5862 44.7776C44.2734 44.9425 44.0225 45.0561 43.7946 45.109C43.1283 45.2634 42.3359 44.8744 42.1611 44.1203C42.1001 43.8573 42.4424 43.5008 43.06 43.1359ZM57.2082 40.835C57.8708 43.6932 56.4552 47.3104 53.7548 47.9364C52.4923 48.2292 51.0868 47.1877 50.7046 45.5394C50.0135 42.5585 51.5829 38.8872 53.3714 38.4725C55.1425 38.0619 56.8463 39.2744 57.2082 40.835ZM54.258 39.9853C53.3617 40.8214 52.7006 43.4691 52.9852 44.6966C53.1193 45.2752 53.2792 45.8849 53.533 46.1032C54.7275 45.198 55.2485 42.823 54.9558 41.5604C54.8542 41.1221 54.624 40.2885 54.258 39.9853ZM61.4994 38.1402C61.6295 38.7013 60.5658 42.163 60.948 43.8112C60.9642 43.8814 61.0074 43.9083 61.06 43.8961C61.5335 43.7864 63.3041 40.3455 63.6308 36.5743C63.6628 36.2343 63.7746 36.079 64.0552 36.014C64.6689 35.8717 65.9126 36.9322 66.0711 37.6161C66.1646 38.0194 65.764 40.7545 65.4912 44.4394C65.4419 45.0236 65.2236 45.2775 64.8378 45.3669C64.417 45.4645 63.9446 45.2599 63.7779 44.5409C63.6763 44.1026 63.6339 43.5211 63.6224 42.914C63.0155 44.4405 62.1901 45.9808 61.3484 46.1759C60.6645 46.3345 58.9368 45.497 58.7132 44.5326C58.2416 42.4986 58.6545 37.2661 59.8644 36.9856C60.5658 36.823 61.3368 37.4388 61.4994 38.1402ZM69.5806 36.2296C69.666 36.5978 69.8036 37.9887 69.7431 39.4809C70.4194 37.2177 71.373 34.3174 72.355 34.0897C73.6175 33.797 74.9691 34.9249 75.2456 36.1172C75.4611 37.0466 75.5421 38.4321 75.4638 39.6882C75.3603 41.3937 74.8911 43.0361 74.0669 43.2272C73.6987 43.3125 73.422 43.155 73.2797 42.5412C73.1374 41.9275 73.2038 40.8589 73.2689 39.8645C73.3045 39.0617 73.3169 38.0795 73.1991 37.571C73.1015 37.1502 73.0242 36.817 72.8489 36.8577C72.165 37.0162 71.5281 39.529 71.0132 41.2929C70.6932 42.3833 70.1391 44.1378 69.3325 44.3248C68.8065 44.4468 67.5575 43.4429 67.4762 43.0922C67.4071 42.7941 67.5898 42.0681 67.6752 41.1614C67.7777 39.7703 67.5078 38.4471 67.3394 37.322C67.1466 36.0918 66.9568 35.1934 67.325 35.1081C68.2719 34.8885 69.4505 35.6685 69.5806 36.2296ZM79.7607 41.9071C78.7788 42.1347 77.3003 41.0178 77.0645 40.0008C76.6539 38.2298 77.172 32.9729 79.8373 32.355C80.6088 32.1761 81.3674 32.4991 81.9468 33.0854C81.939 30.7406 81.8692 28.4471 81.5739 27.333C81.5007 27.0173 81.5747 26.7785 81.9605 26.689C82.4515 26.5752 84.0377 27.5193 84.2572 28.4662C84.3507 28.8695 84.24 32.7754 84.2323 34.4956C84.2307 36.8796 84.1269 40.8948 83.5833 41.0208C83.1274 41.1265 82.1366 40.5987 82.0024 40.02C81.9943 39.9849 81.9821 39.9323 81.9874 39.8757C81.1925 40.9099 80.3394 41.7729 79.7607 41.9071ZM79.2091 39.4481C79.2538 39.641 79.2795 39.672 79.5074 39.6192C79.8757 39.5338 81.5662 38.218 81.923 36.2505C81.873 36.1143 81.8404 35.9741 81.8039 35.8162C81.5762 34.8343 80.827 34.4721 80.564 34.5331C79.0385 34.8868 79.0262 38.6591 79.2091 39.4481Z" fill="#120A0B"/>
<g clip-path="url(#clip0_10807_3357)">
<path d="M73.3537 18.0529C73.6013 16.7062 73.5167 15.9363 73.8531 15.6023C75.1004 14.3535 76.3172 12.991 77.8415 12.0949C81.8467 9.55842 86.3202 8.54265 90.9919 8.26638C98.9534 7.77926 106.566 9.39747 114.067 11.9602C114.871 12.2328 115.658 12.4484 116.518 12.7058C116.575 12.6906 116.673 12.6033 116.813 12.4439C116.137 11.2837 115.446 10.0666 114.827 8.89119C114.53 8.23899 114.317 7.4426 114.361 6.69914C114.368 6.27053 114.84 5.53438 115.237 5.42791C115.748 5.29101 116.48 5.52188 117.025 5.74151C117.385 5.94987 117.579 6.44663 117.815 6.87129C119.581 10.0562 121.46 13.2107 123.185 16.4677C124.658 19.2431 123.953 20.4687 121.012 21.0738C117.957 21.7093 114.933 22.4586 111.951 23.1358C111.028 23.3223 110.017 23.4102 108.965 23.5702C109.403 20.8921 109.403 20.8921 118.371 17.5747C113.437 15.0557 108.482 13.8226 103.46 12.7905C98.4377 11.7584 93.3866 11.5267 88.2345 12.0537C82.9121 12.6262 78.3461 14.8861 73.3537 18.0529Z" fill="#120A0B"/>
</g>
<path d="M585.922 121.426C586.651 113.728 593.482 108.079 601.18 108.808L642.993 112.767C650.69 113.496 656.34 120.327 655.611 128.025C654.882 135.722 648.051 141.371 640.353 140.643L598.54 136.683C590.843 135.954 585.194 129.123 585.922 121.426Z" fill="#C9FF85"/>
<path d="M612.31 123.856C612.02 126.922 609.81 128.879 606.952 128.608C604.109 128.339 602.333 126.005 602.623 122.939C602.913 119.887 605.11 117.915 607.953 118.184C610.811 118.455 612.601 120.79 612.31 123.856ZM610.875 123.72C611.096 121.379 609.877 119.702 607.828 119.508C605.779 119.314 604.281 120.733 604.059 123.075C603.837 125.416 605.041 127.105 607.09 127.299C609.139 127.493 610.654 126.048 610.875 123.72ZM613.234 125.589C613.433 123.484 615.078 122.149 617.127 122.343C619.162 122.536 620.527 124.156 620.328 126.261C620.129 128.365 618.484 129.7 616.449 129.507C614.4 129.313 613.034 127.693 613.234 125.589ZM614.558 125.714C614.423 127.136 615.235 128.211 616.56 128.337C617.87 128.461 618.883 127.558 619.018 126.137C619.152 124.715 618.326 123.638 617.016 123.514C615.692 123.389 614.692 124.293 614.558 125.714ZM621.166 132.865L622.1 122.997L623.285 123.109L623.266 124.345C623.815 123.455 624.781 123.054 625.868 123.157C627.819 123.342 628.893 124.92 628.695 127.011C628.499 129.087 627.208 130.54 625.187 130.349C624.1 130.246 623.237 129.7 622.871 128.822L622.476 132.989L621.166 132.865ZM623.101 126.537C622.969 127.931 623.682 129.011 625.02 129.138C626.358 129.264 627.248 128.336 627.38 126.942C627.513 125.535 626.814 124.456 625.476 124.329C624.138 124.203 623.236 125.116 623.101 126.537ZM629.442 128.572L630.696 128.691C630.63 129.388 631.12 129.856 631.985 129.938C632.904 130.025 633.47 129.699 633.529 129.072C633.573 128.612 633.376 128.312 632.682 128.063L631.51 127.671C630.325 127.264 629.811 126.61 629.906 125.607C630.024 124.352 631.159 123.658 632.664 123.801C634.155 123.942 635.052 124.87 634.957 126.169L633.703 126.05C633.739 125.365 633.32 124.889 632.526 124.814C631.704 124.736 631.209 125.055 631.15 125.682C631.106 126.142 631.412 126.48 632.065 126.711L633.236 127.117C634.366 127.506 634.888 128.089 634.791 129.107C634.669 130.403 633.476 131.12 631.859 130.967C630.256 130.815 629.319 129.868 629.442 128.572ZM637.949 128.323L636.931 128.227C636.891 127.168 636.969 125.305 637.14 123.493L637.362 121.152L638.867 121.294L638.646 123.636C638.472 125.475 638.186 127.305 637.949 128.323ZM637.142 131.495C636.585 131.442 636.181 130.954 636.232 130.41C636.284 129.867 636.772 129.463 637.33 129.516C637.859 129.566 638.277 130.056 638.225 130.599C638.174 131.143 637.672 131.545 637.142 131.495Z" fill="#120A0B"/>
<path d="M624.452 73.5164C621.924 73.2895 620.568 71.487 620.674 70.3038C620.722 69.766 620.922 69.3502 621.316 69.3856C622.374 69.4805 622.74 71.2483 624.407 71.3979C625.429 71.4896 627.123 70.5392 627.172 69.9835C627.258 69.0333 623.451 65.9446 623.563 64.6896C623.631 63.9367 624.031 62.9063 624.475 62.5847C625.88 61.4277 628.324 60.5807 629.883 60.7207C630.851 60.8076 631.368 61.9022 631.3 62.6551C631.249 63.2288 629.689 63.0888 628.428 63.4455C627.037 63.8448 626.178 64.1472 626.143 64.5416C626.078 65.2588 629.895 67.6435 629.661 70.243C629.478 72.2868 627.069 73.7513 624.452 73.5164ZM638.548 68.637C638.286 71.5593 635.812 74.5541 633.051 74.3063C631.76 74.1905 630.75 72.7624 630.901 71.0772C631.175 68.0295 633.811 65.0312 635.64 65.1953C637.451 65.3578 638.691 67.0414 638.548 68.637ZM636.01 66.9092C634.898 67.4239 633.444 69.7331 633.331 70.9881C633.278 71.5797 633.239 72.2088 633.412 72.4954C634.83 72.0081 636.066 69.9142 636.182 68.6234C636.222 68.1752 636.263 67.3115 636.01 66.9092ZM642.931 67.3316C642.835 68.4073 642.344 69.6464 641.829 70.9556C643.087 68.6107 644.567 66.0147 646.163 66.1579C646.755 66.211 647.879 67.7758 647.794 68.726C647.768 69.0128 647.722 69.5327 647.654 70.0869C648.509 68.4106 650.412 66.5392 651.792 66.6631C652.832 66.7565 653.258 68.6562 653.194 69.3733C653.067 70.7896 651.608 75.9719 649.994 75.8271C649.618 75.7933 649.422 75.5588 649.478 74.9313C649.61 73.4613 650.751 71.2143 650.858 70.0311C650.888 69.6904 650.857 69.4346 650.731 69.4233C650.176 69.3735 649.419 70.5526 647.635 73.3201C646.942 74.3965 646.536 75.4986 645.872 75.439C645.406 75.3972 644.62 74.4953 644.668 73.9574C644.727 73.2941 645.398 72.4687 645.649 69.672C645.686 69.2596 645.712 68.9728 645.55 68.9583C645.066 68.9149 644.268 70.5601 642.802 72.5972C642.182 73.4632 640.958 75.0161 640.277 74.9549C639.721 74.905 638.83 73.56 638.864 73.1835C638.91 72.6636 639.2 72.057 639.548 71.2027C640.531 68.7066 640.349 65.4915 641.12 65.5607C642.088 65.6476 642.983 66.758 642.931 67.3316ZM659.274 67.3347C661.013 67.4908 662.269 69.6095 662.147 70.972C662.039 72.1732 659.97 73.0719 658.16 72.9094C657.371 72.8386 656.732 72.7089 656.257 72.5579C656.121 72.8709 656.038 73.1888 656.014 73.4577C655.956 74.1031 655.982 74.4127 656.897 74.4948C659.156 74.6976 659.739 74.2439 660.241 74.2889C660.796 74.3388 660.958 74.5521 660.932 74.8389C660.849 75.7712 658.91 76.6273 657.1 76.4648C654.733 76.2524 653.726 74.5897 653.878 72.8865C654.107 70.3408 657.123 67.1416 659.274 67.3347ZM659.184 69.5495C658.575 69.4948 657.752 70.1981 657.095 71.0789C657.255 71.1113 657.416 71.1257 657.559 71.1386C658.743 71.2448 660.03 71.1977 660.093 70.4985C660.114 70.2655 659.507 69.5784 659.184 69.5495ZM669.619 68.5162C670.569 68.6015 670.943 68.87 670.909 69.2465C670.856 69.8381 669.429 70.0353 667.622 70.2345C667.272 71.1068 666.885 71.9938 666.583 72.7437C666.167 73.7546 665.696 74.7785 665.676 74.9937C665.667 75.1012 665.721 75.1061 665.882 75.1206C666.581 75.1833 668.285 74.523 668.751 74.5648C669.128 74.5986 669.18 74.8202 669.151 75.1429C669.077 75.9676 667.072 77.36 665.226 77.1942C664.527 77.1315 663.163 76.0151 663.245 75.1008C663.316 74.3119 664.156 72.5982 664.953 70.5733C664.493 70.6585 664.128 70.6981 663.931 70.6804C663.375 70.6305 662.805 69.73 662.859 69.1383C662.894 68.7439 664.09 68.5079 665.724 68.4196C666.008 67.4692 666.24 66.4961 666.324 65.5638C666.353 65.2411 666.498 65.0372 666.91 65.0743C667.43 65.1209 668.751 66.107 668.676 66.9496C668.643 67.3081 668.505 67.8379 668.307 68.4346C668.739 68.4553 669.189 68.4776 669.619 68.5162ZM674.542 63.6448C675.187 63.7027 676.155 65.1992 676.079 66.0418C675.944 67.5478 674.356 71.1462 673.253 73.9749C675.097 70.9417 677.21 68.9446 678.376 69.0492C679.129 69.1167 680.206 71.0026 680.131 71.8453C680.076 72.4548 679.917 73.2177 679.705 73.9757C679.104 76.0362 677.832 78.3257 676.775 78.2308C676.398 78.197 676.202 77.9625 676.259 77.3351C676.354 76.2773 677.062 74.8229 677.337 73.7812C677.418 73.4813 677.517 73.1829 677.546 72.8602C677.567 72.6272 677.581 72.4658 677.438 72.4529C676.523 72.3709 675.157 74.1096 674.079 75.6395C673.209 76.8806 672.49 77.8462 671.844 77.7883C671.307 77.74 670.394 76.4292 670.439 75.9272C670.51 75.1384 671.254 73.2895 672.082 70.5084C672.824 68.081 673.842 64.7928 673.882 64.3446C673.923 63.8964 674.147 63.6094 674.542 63.6448ZM685.984 68.5393C685.947 68.9517 685.431 69.2668 685.037 69.2314C684.338 69.1686 683.262 67.8612 683.32 67.2158C683.372 66.6421 684.13 65.8427 684.704 65.8942C685.26 65.9441 686.049 67.8222 685.984 68.5393ZM683.386 69.4989C684.283 69.5793 684.882 70.9524 684.811 71.7413C684.766 72.2433 683.301 75.8888 682.387 78.0117C682.156 78.5693 681.805 78.6642 681.446 78.632C680.908 78.5837 680.502 78.0774 680.55 77.5395C680.61 76.8762 681.066 75.616 681.706 73.7216C682.273 72.0375 682.741 69.441 683.386 69.4989ZM689.311 71.4946C689.278 71.871 688.974 73.2354 688.451 74.6342C689.8 72.695 691.611 70.2371 692.615 70.3272C693.906 70.4431 694.838 71.9364 694.729 73.1555C694.643 74.1057 694.288 75.4473 693.822 76.6163C693.191 78.2043 692.233 79.6183 691.39 79.5426C691.014 79.5088 690.8 79.2728 690.856 78.6453C690.913 78.0178 691.309 77.0233 691.681 76.0989C691.966 75.3473 692.284 74.418 692.331 73.8981C692.369 73.4678 692.4 73.1272 692.22 73.1111C691.521 73.0483 690.132 75.2369 689.092 76.752C688.448 77.6882 687.374 79.1822 686.55 79.1082C686.012 79.0599 685.138 77.7164 685.171 77.3579C685.198 77.0531 685.598 76.4203 685.962 75.5855C686.494 74.2959 686.65 72.9545 686.841 71.8331C687.042 70.6041 687.142 69.6914 687.518 69.7252C688.486 69.8121 689.363 70.9209 689.311 71.4946ZM702.756 74.6712C702.741 74.8325 702.709 74.9923 702.678 75.1341C702.824 75.3279 702.912 75.5526 702.892 75.7678C702.859 76.1443 702.698 76.5274 702.428 76.9188C701.057 79.5067 700.504 85.2583 696.919 84.9365C695.162 84.7788 693.951 83.1701 694.015 82.453C694.075 81.7896 694.644 81.0817 695.057 81.1187C695.72 81.1783 695.916 83.0212 697.081 83.1258C698.032 83.211 698.587 81.4536 699.269 79.4908C698.474 79.8893 697.714 80.1102 697.194 80.0635C696.19 79.9734 695.153 78.4346 695.245 77.4127C695.404 75.6378 698.06 70.8159 700.874 71.0686C702.775 71.2391 702.875 73.3445 702.756 74.6712ZM697.453 77.5748C697.439 77.7361 697.45 77.8094 697.629 77.8255C698.257 77.8818 700.454 76.5609 701.129 75.2842C701.138 75.1766 701.148 75.069 701.159 74.9435C701.224 74.2264 701.298 73.4017 700.796 73.3567C699.523 73.2424 697.537 76.6425 697.453 77.5748ZM621.275 86.0124C621.902 86.0688 622.93 86.7031 622.886 87.1872C622.835 87.7609 622.377 88.8402 621.998 89.8364C620.888 92.7368 618.42 95.0635 617.703 94.9991C617.381 94.9702 616.571 94.3192 616.366 93.7947C616.204 93.3826 616.161 92.6558 616.178 91.8622C616.199 91.0147 616.283 90.0825 616.347 89.3654C614.911 92.887 613.203 94.5952 612.504 94.5325C612.181 94.5035 611.335 93.8673 611.166 93.3281C610.687 91.8212 610.636 86.7563 610.721 85.8061C610.768 85.2862 610.984 85.0888 611.289 85.1161C612.293 85.2063 613.26 86.9195 613.215 87.4215C613.152 88.1207 612.981 90.0211 612.897 91.5677C614.874 89.0705 615.52 85.4959 616.452 85.5796C617.51 85.6745 618.669 87.0617 618.575 88.1015C618.505 88.8903 618.154 90.1781 618.054 91.2897C618.025 91.6124 618.014 91.9367 618.042 92.2283C619.937 90.6454 620.414 85.9352 621.275 86.0124ZM628.105 86.6255C629.844 86.7816 631.099 88.9003 630.977 90.2628C630.869 91.464 628.801 92.3626 626.99 92.2001C626.201 92.1293 625.562 91.9997 625.088 91.8487C624.951 92.1617 624.868 92.4796 624.844 92.7485C624.786 93.3939 624.813 93.7035 625.727 93.7856C627.986 93.9883 628.569 93.5346 629.071 93.5797C629.627 93.6296 629.788 93.8429 629.763 94.1297C629.679 95.062 627.741 95.9181 625.93 95.7556C623.563 95.5432 622.556 93.8805 622.709 92.1773C622.937 89.6315 625.953 86.4324 628.105 86.6255ZM628.014 88.8403C627.405 88.7855 626.583 89.4889 625.925 90.3696C626.085 90.402 626.246 90.4165 626.39 90.4294C627.573 90.5356 628.86 90.4885 628.923 89.7893C628.944 89.5562 628.337 88.8692 628.014 88.8403ZM635.294 88.7346C635.26 89.1111 634.957 90.4755 634.434 91.8743C635.783 89.9351 637.594 87.4772 638.598 87.5673C639.888 87.6831 640.821 89.1764 640.711 90.3955C640.626 91.3457 640.271 92.6873 639.804 93.8563C639.174 95.4443 638.216 96.8583 637.373 96.7827C636.996 96.7489 636.783 96.5128 636.839 95.8854C636.895 95.2579 637.292 94.2633 637.664 93.3389C637.948 92.5873 638.267 91.6581 638.313 91.1381C638.352 90.7079 638.382 90.3672 638.203 90.3511C637.504 90.2884 636.115 92.477 635.075 93.9921C634.431 94.9282 633.357 96.4222 632.532 96.3482C631.995 96.2999 631.121 94.9565 631.153 94.5979C631.181 94.2931 631.581 93.6604 631.945 92.8256C632.476 91.5359 632.633 90.1946 632.824 89.0731C633.025 87.8442 633.125 86.9314 633.501 86.9652C634.469 87.0521 635.346 88.1609 635.294 88.7346ZM648.377 88.698C649.327 88.7833 649.7 89.0517 649.666 89.4282C649.613 90.0198 648.186 90.217 646.379 90.4163C646.03 91.2886 645.643 92.1755 645.34 92.9255C644.924 93.9364 644.453 94.9603 644.434 95.1754C644.424 95.283 644.478 95.2878 644.639 95.3023C645.338 95.3651 647.042 94.7048 647.508 94.7466C647.885 94.7804 647.937 95.002 647.908 95.3247C647.834 96.1493 645.83 97.5417 643.983 97.376C643.284 97.3132 641.92 96.1969 642.002 95.2825C642.073 94.4937 642.914 92.78 643.71 90.7551C643.25 90.8403 642.885 90.8798 642.688 90.8621C642.133 90.8123 641.563 89.9117 641.616 89.3201C641.651 88.9257 642.847 88.6896 644.482 88.6014C644.766 87.651 644.998 86.6778 645.081 85.7456C645.11 85.4229 645.255 85.219 645.667 85.256C646.187 85.3027 647.508 86.2887 647.433 87.1314C647.401 87.4899 647.263 88.0197 647.065 88.6164C647.496 88.6371 647.946 88.6594 648.377 88.698ZM667.67 90.1767C668.298 90.2331 669.325 90.8674 669.282 91.3515C669.23 91.9252 668.772 93.0045 668.393 94.0007C667.284 96.9011 664.816 99.2278 664.099 99.1634C663.776 99.1345 662.967 98.4835 662.761 97.959C662.599 97.5469 662.556 96.8201 662.573 96.0265C662.595 95.179 662.679 94.2468 662.743 93.5297C661.306 97.0513 659.599 98.7595 658.9 98.6968C658.577 98.6678 657.73 98.0316 657.562 97.4924C657.083 95.9855 657.031 90.9206 657.117 89.9704C657.163 89.4505 657.38 89.2531 657.685 89.2804C658.689 89.3706 659.655 91.0838 659.61 91.5858C659.547 92.285 659.377 94.1854 659.292 95.732C661.269 93.2347 661.916 89.6602 662.848 89.7439C663.906 89.8388 665.064 91.2259 664.971 92.2658C664.9 93.0546 664.55 94.3424 664.45 95.4539C664.421 95.7766 664.41 96.101 664.438 96.3926C666.333 94.8097 666.81 90.0995 667.67 90.1767ZM672.632 95.8088C671.813 98.2835 671.117 99.7934 670.257 99.7161C669.486 99.647 669.271 98.6156 669.332 97.9344C669.392 97.271 670.071 96.356 670.39 95.21C670.574 94.5759 670.661 94.0054 670.706 93.5034C670.782 92.6608 670.735 91.9699 670.78 91.4679C670.832 90.8942 670.996 90.4752 671.498 90.5203C671.928 90.5589 672.44 90.894 672.635 91.7428C673.526 91.0818 674.625 90.7106 675.36 90.7766C676.131 90.8458 676.655 91.0554 676.613 91.5215C676.552 92.2028 675.916 92.4349 675.157 92.8367C674.286 93.2826 673.231 93.965 672.632 95.8088ZM683.484 94.7588C683.222 97.6811 680.749 100.676 677.988 100.428C676.697 100.312 675.686 98.8842 675.838 97.199C676.111 94.1512 678.748 91.1529 680.577 91.3171C682.387 91.4796 683.628 93.1632 683.484 94.7588ZM680.947 93.031C679.834 93.5456 678.38 95.8549 678.267 97.1098C678.214 97.7014 678.176 98.3305 678.349 98.6172C679.766 98.1299 681.002 96.036 681.118 94.7452C681.158 94.297 681.2 93.4333 680.947 93.031ZM687.957 93.4615C687.924 93.838 687.62 95.2023 687.097 96.6011C688.446 94.662 690.257 92.204 691.261 92.2941C692.552 92.41 693.484 93.9033 693.375 95.1224C693.289 96.0726 692.934 97.4142 692.468 98.5832C691.837 100.171 690.879 101.585 690.036 101.51C689.66 101.476 689.446 101.24 689.502 100.612C689.559 99.9847 689.955 98.9902 690.327 98.0658C690.612 97.3142 690.93 96.3849 690.977 95.865C691.015 95.4347 691.046 95.0941 690.866 95.078C690.167 95.0153 688.778 97.2038 687.738 98.719C687.094 99.6551 686.02 101.149 685.196 101.075C684.658 101.027 683.784 99.6833 683.817 99.3248C683.844 99.02 684.244 98.3872 684.608 97.5524C685.14 96.2628 685.296 94.9214 685.487 93.8C685.688 92.571 685.788 91.6583 686.164 91.6921C687.132 91.779 688.009 92.8878 687.957 93.4615ZM701.402 96.6381C701.388 96.7995 701.355 96.9592 701.324 97.101C701.47 97.2948 701.558 97.5196 701.539 97.7347C701.505 98.1112 701.344 98.4943 701.074 98.8858C699.703 101.474 699.151 107.225 695.565 106.903C693.808 106.746 692.597 105.137 692.661 104.42C692.721 103.757 693.29 103.049 693.703 103.086C694.366 103.145 694.562 104.988 695.727 105.093C696.678 105.178 697.233 103.421 697.915 101.458C697.12 101.856 696.36 102.077 695.84 102.03C694.836 101.94 693.799 100.401 693.891 99.3796C694.05 97.6047 696.706 92.7828 699.521 93.0355C701.421 93.206 701.521 95.3114 701.402 96.6381ZM696.099 99.5417C696.085 99.703 696.096 99.7763 696.275 99.7924C696.903 99.8488 699.1 98.5279 699.775 97.2511C699.784 97.1435 699.794 97.0359 699.805 96.9104C699.87 96.1933 699.944 95.3686 699.442 95.3236C698.169 95.2093 696.183 98.6094 696.099 99.5417ZM709.779 90.5767C709.683 91.6524 707.664 99.0435 706.732 98.9599C706.068 98.9003 705.391 97.9901 705.436 97.2893C705.365 96.6685 706.466 94.2733 706.948 88.8949C706.982 88.5184 707.282 88.4008 707.569 88.4265C708.322 88.4941 709.82 90.1285 709.779 90.5767ZM706.641 102.385C706.614 102.69 706.085 103.149 705.69 103.113C704.973 103.049 703.93 101.781 703.99 101.117C704.041 100.544 704.779 99.7785 705.37 99.8316C705.944 99.8831 706.693 101.812 706.641 102.385Z" fill="#120A0B"/>
<g clip-path="url(#clip1_10807_3357)">
<path d="M612.669 75.9321C612.433 74.5834 612.525 73.8142 612.191 73.4773C610.955 72.2179 609.749 70.845 608.233 69.9358C604.25 67.3651 599.785 66.311 595.116 65.9946C587.159 65.4392 579.532 66.992 572.01 69.4903C571.204 69.756 570.414 69.9649 569.552 70.2149C569.496 70.1992 569.398 70.111 569.26 69.9504C569.946 68.7961 570.647 67.585 571.276 66.4149C571.578 65.7653 571.799 64.9708 571.761 64.2269C571.758 63.7983 571.292 63.0581 570.895 62.9482C570.386 62.807 569.653 63.0316 569.105 63.2465C568.743 63.4518 568.545 63.9468 568.306 64.3695C566.513 67.5391 564.606 70.6773 562.854 73.9194C561.356 76.6821 562.052 77.9138 564.987 78.544C568.036 79.2057 571.053 79.9809 574.03 80.6837C574.952 80.8781 575.962 80.9747 577.013 81.1437C576.597 78.4619 576.597 78.4619 567.658 75.0677C572.614 72.5912 577.579 71.4006 582.609 70.4116C587.64 69.4227 592.693 69.2343 597.841 69.8054C603.158 70.4236 607.704 72.7227 612.669 75.9321Z" fill="#120A0B"/>
</g>
<defs>
<clipPath id="clip0_10807_3357">
<rect width="20.897" height="48.7596" fill="white" transform="translate(118.996) rotate(75)"/>
</clipPath>
<clipPath id="clip1_10807_3357">
<rect width="20.897" height="48.7596" fill="white" transform="matrix(-0.267097 0.96367 0.96367 0.267097 567.184 57.4883)"/>
</clipPath>
</defs>
</svg>
