<svg width="80" height="51" viewBox="0 0 80 51" fill="none" xmlns="http://www.w3.org/2000/svg">
<g clip-path="url(#clip0_10745_1434)">
<path d="M6.05298 8.3194C7.40465 6.72097 7.88041 5.63474 8.57683 5.4479C11.1669 4.74146 13.8036 3.86081 16.4887 3.83338C23.6826 3.52027 30.3324 5.58218 36.6788 8.77649C47.5068 14.1986 56.2723 22.1491 64.1707 31.2676C65.0178 32.2415 65.8883 33.1283 66.8215 34.1253C66.9077 34.1484 67.1033 34.1074 67.4085 34.0024C67.405 31.9475 67.425 29.8056 67.5077 27.7738C67.6155 26.6823 67.9423 25.4628 68.5669 24.5098C68.9026 23.9462 70.0837 23.3291 70.6868 23.4906C71.4621 23.6984 72.2464 24.5621 72.7956 25.2694C73.1096 25.8204 72.9857 26.6274 72.9713 27.3705C72.8631 32.9432 72.9273 38.5622 72.7096 44.199C72.5297 49.0056 70.6684 50.094 66.3446 48.6554C61.8486 47.1706 57.3059 45.8601 52.8727 44.4855C51.5176 44.029 50.1231 43.3752 48.619 42.7855C51.2362 39.5655 51.2362 39.5655 65.5429 41.9986C60.9827 34.8948 55.4155 29.4819 49.606 24.2841C43.7964 19.0863 37.3388 14.9285 30.1704 11.7007C22.7435 8.40358 15.0238 7.92224 6.05298 8.3194Z" fill="#120A0B"/>
</g>
<defs>
<clipPath id="clip0_10745_1434">
<rect width="32" height="74" fill="white" transform="translate(79.7607 19.1523) rotate(105)"/>
</clipPath>
</defs>
</svg>
