<svg width="176" height="32" viewBox="0 0 176 32" fill="none" xmlns="http://www.w3.org/2000/svg">
<path d="M25.48 0.273233C26.111 -0.0910777 26.8885 -0.0910776 27.5195 0.273233L39.6097 7.25351C40.2407 7.61782 40.6294 8.2911 40.6294 9.01972V16.8118L27.8245 9.43278C27.2145 9.08129 26.4351 9.29081 26.0836 9.90075C25.7321 10.5107 25.9417 11.2901 26.5516 11.6416L40.6294 19.7541V22.9803C40.6294 23.7089 40.2407 24.3822 39.6097 24.7465L27.5195 31.7268C26.8885 32.0911 26.111 32.0911 25.48 31.7268L13.3898 24.7465C12.7588 24.3822 12.3701 23.7089 12.3701 22.9803V15.2119L25.0904 22.5663C25.6999 22.9187 26.4795 22.7103 26.8319 22.1008C27.1843 21.4914 26.9758 20.7117 26.3664 20.3593L12.3701 12.2672V9.01972C12.3701 8.2911 12.7588 7.61782 13.3898 7.25351L25.48 0.273233Z" fill="#06B6D4"/>
<path d="M56.6709 24.264C55.9989 24.264 55.3109 24.208 54.6069 24.096C53.9189 24 53.2549 23.856 52.6149 23.664C51.9909 23.472 51.4309 23.232 50.9349 22.944C50.5829 22.752 50.3349 22.504 50.1909 22.2C50.0469 21.88 49.9909 21.56 50.0229 21.24C50.0709 20.92 50.1909 20.64 50.3829 20.4C50.5909 20.144 50.8469 19.984 51.1509 19.92C51.4709 19.84 51.8229 19.896 52.2069 20.088C52.8629 20.456 53.5749 20.728 54.3429 20.904C55.1269 21.08 55.9029 21.168 56.6709 21.168C57.8389 21.168 58.6709 20.992 59.1669 20.64C59.6629 20.272 59.9109 19.816 59.9109 19.272C59.9109 18.808 59.7349 18.44 59.3829 18.168C59.0309 17.896 58.4149 17.664 57.5349 17.472L54.8229 16.896C53.2869 16.576 52.1429 16.032 51.3909 15.264C50.6549 14.48 50.2869 13.456 50.2869 12.192C50.2869 11.392 50.4549 10.664 50.7909 10.008C51.1269 9.352 51.5989 8.784 52.2069 8.304C52.8149 7.824 53.5349 7.456 54.3669 7.2C55.2149 6.944 56.1429 6.816 57.1509 6.816C58.0469 6.816 58.9269 6.928 59.7909 7.152C60.6549 7.36 61.4149 7.672 62.0709 8.088C62.3909 8.28 62.6069 8.528 62.7189 8.832C62.8469 9.12 62.8869 9.416 62.8389 9.72C62.8069 10.008 62.6869 10.264 62.4789 10.488C62.2869 10.712 62.0389 10.856 61.7349 10.92C61.4309 10.984 61.0629 10.912 60.6309 10.704C60.1029 10.432 59.5429 10.232 58.9509 10.104C58.3589 9.976 57.7509 9.912 57.1269 9.912C56.4549 9.912 55.8789 10 55.3989 10.176C54.9349 10.352 54.5749 10.6 54.3189 10.92C54.0789 11.24 53.9589 11.608 53.9589 12.024C53.9589 12.488 54.1269 12.864 54.4629 13.152C54.7989 13.44 55.3829 13.672 56.2149 13.848L58.9269 14.424C60.4949 14.76 61.6629 15.304 62.4309 16.056C63.1989 16.792 63.5829 17.768 63.5829 18.984C63.5829 19.784 63.4229 20.512 63.1029 21.168C62.7829 21.808 62.3189 22.36 61.7109 22.824C61.1029 23.288 60.3749 23.648 59.5269 23.904C58.6789 24.144 57.7269 24.264 56.6709 24.264ZM67.5099 28.536C66.9179 28.536 66.4619 28.376 66.1419 28.056C65.8379 27.752 65.6859 27.296 65.6859 26.688V13.848C65.6859 13.256 65.8379 12.808 66.1419 12.504C66.4619 12.184 66.9019 12.024 67.4619 12.024C68.0539 12.024 68.5019 12.184 68.8059 12.504C69.1099 12.808 69.2619 13.256 69.2619 13.848V15.48L68.9979 14.544C69.2379 13.776 69.7179 13.16 70.4379 12.696C71.1739 12.216 72.0139 11.976 72.9579 11.976C73.9819 11.976 74.8779 12.224 75.6459 12.72C76.4299 13.216 77.0379 13.92 77.4699 14.832C77.9019 15.744 78.1179 16.832 78.1179 18.096C78.1179 19.36 77.9019 20.456 77.4699 21.384C77.0379 22.312 76.4379 23.024 75.6699 23.52C74.9019 24.016 73.9979 24.264 72.9579 24.264C72.0299 24.264 71.2059 24.04 70.4859 23.592C69.7659 23.128 69.2779 22.528 69.0219 21.792H69.3099V26.688C69.3099 27.296 69.1499 27.752 68.8299 28.056C68.5259 28.376 68.0859 28.536 67.5099 28.536ZM71.8779 21.552C72.3899 21.552 72.8379 21.424 73.2219 21.168C73.6219 20.912 73.9259 20.536 74.1339 20.04C74.3579 19.528 74.4699 18.88 74.4699 18.096C74.4699 16.928 74.2299 16.072 73.7499 15.528C73.2699 14.968 72.6459 14.688 71.8779 14.688C71.3659 14.688 70.9099 14.808 70.5099 15.048C70.1259 15.288 69.8219 15.664 69.5979 16.176C69.3739 16.672 69.2619 17.312 69.2619 18.096C69.2619 19.264 69.5019 20.136 69.9819 20.712C70.4619 21.272 71.0939 21.552 71.8779 21.552ZM84.3184 24.264C83.4544 24.264 82.6784 24.096 81.9904 23.76C81.3024 23.424 80.7664 22.968 80.3824 22.392C79.9984 21.816 79.8064 21.168 79.8064 20.448C79.8064 19.584 80.0304 18.904 80.4784 18.408C80.9264 17.896 81.6544 17.536 82.6624 17.328C83.6704 17.104 85.0064 16.992 86.6704 16.992H87.9424V18.864H86.6944C85.8784 18.864 85.2144 18.912 84.7024 19.008C84.2064 19.088 83.8464 19.232 83.6224 19.44C83.4144 19.648 83.3104 19.936 83.3104 20.304C83.3104 20.752 83.4624 21.12 83.7664 21.408C84.0864 21.696 84.5424 21.84 85.1344 21.84C85.5984 21.84 86.0064 21.736 86.3584 21.528C86.7264 21.304 87.0144 21.008 87.2224 20.64C87.4304 20.256 87.5344 19.824 87.5344 19.344V16.584C87.5344 15.88 87.3744 15.384 87.0544 15.096C86.7344 14.792 86.1904 14.64 85.4224 14.64C84.9904 14.64 84.5184 14.696 84.0064 14.808C83.5104 14.904 82.9584 15.072 82.3504 15.312C81.9984 15.472 81.6864 15.512 81.4144 15.432C81.1424 15.336 80.9344 15.176 80.7904 14.952C80.6464 14.712 80.5744 14.456 80.5744 14.184C80.5744 13.896 80.6544 13.624 80.8144 13.368C80.9744 13.096 81.2384 12.896 81.6064 12.768C82.3584 12.464 83.0624 12.256 83.7184 12.144C84.3904 12.032 85.0064 11.976 85.5664 11.976C86.7984 11.976 87.8064 12.16 88.5904 12.528C89.3904 12.88 89.9904 13.432 90.3904 14.184C90.7904 14.92 90.9904 15.872 90.9904 17.04V22.368C90.9904 22.96 90.8464 23.416 90.5584 23.736C90.2704 24.056 89.8544 24.216 89.3104 24.216C88.7664 24.216 88.3424 24.056 88.0384 23.736C87.7504 23.416 87.6064 22.96 87.6064 22.368V21.48L87.7744 21.624C87.6784 22.168 87.4704 22.64 87.1504 23.04C86.8464 23.424 86.4544 23.728 85.9744 23.952C85.4944 24.16 84.9424 24.264 84.3184 24.264ZM95.5658 24.216C94.9578 24.216 94.4938 24.056 94.1738 23.736C93.8538 23.416 93.6938 22.96 93.6938 22.368V13.848C93.6938 13.256 93.8458 12.808 94.1498 12.504C94.4698 12.184 94.9098 12.024 95.4698 12.024C96.0458 12.024 96.4858 12.184 96.7898 12.504C97.0938 12.808 97.2458 13.256 97.2458 13.848V15.096H97.0058C97.1978 14.136 97.6218 13.392 98.2778 12.864C98.9338 12.336 99.7818 12.04 100.822 11.976C101.222 11.944 101.526 12.048 101.734 12.288C101.958 12.512 102.078 12.888 102.094 13.416C102.126 13.912 102.022 14.304 101.782 14.592C101.558 14.88 101.174 15.056 100.63 15.12L100.078 15.168C99.1658 15.248 98.4858 15.512 98.0378 15.96C97.6058 16.408 97.3898 17.056 97.3898 17.904V22.368C97.3898 22.96 97.2298 23.416 96.9098 23.736C96.6058 24.056 96.1578 24.216 95.5658 24.216ZM105.408 24.216C104.816 24.216 104.36 24.056 104.04 23.736C103.736 23.416 103.584 22.96 103.584 22.368V8.712C103.584 8.104 103.736 7.648 104.04 7.344C104.36 7.024 104.816 6.864 105.408 6.864C105.984 6.864 106.424 7.024 106.728 7.344C107.048 7.648 107.208 8.104 107.208 8.712V17.088H107.256L110.736 13.224C111.088 12.824 111.408 12.528 111.696 12.336C112 12.128 112.4 12.024 112.896 12.024C113.392 12.024 113.768 12.152 114.024 12.408C114.296 12.664 114.432 12.976 114.432 13.344C114.448 13.696 114.296 14.056 113.976 14.424L110.304 18.528V17.16L114.384 21.864C114.688 22.232 114.816 22.6 114.768 22.968C114.736 23.336 114.576 23.64 114.288 23.88C114 24.104 113.632 24.216 113.184 24.216C112.64 24.216 112.2 24.112 111.864 23.904C111.544 23.696 111.216 23.376 110.88 22.944L107.256 18.912H107.208V22.368C107.208 23.6 106.608 24.216 105.408 24.216ZM121.37 24.216C120.89 24.216 120.482 24.104 120.146 23.88C119.81 23.64 119.538 23.264 119.33 22.752L115.946 14.376C115.77 13.928 115.714 13.536 115.778 13.2C115.842 12.848 116.01 12.568 116.282 12.36C116.57 12.136 116.962 12.024 117.458 12.024C117.874 12.024 118.218 12.128 118.49 12.336C118.762 12.528 118.994 12.904 119.186 13.464L121.826 20.496H121.274L124.01 13.152C124.138 12.768 124.322 12.488 124.562 12.312C124.818 12.12 125.146 12.024 125.546 12.024C125.946 12.024 126.266 12.12 126.506 12.312C126.762 12.504 126.962 12.784 127.106 13.152L129.794 20.496H129.338L131.954 13.368C132.146 12.856 132.394 12.504 132.698 12.312C133.002 12.12 133.33 12.024 133.682 12.024C134.13 12.024 134.474 12.136 134.714 12.36C134.97 12.584 135.114 12.872 135.146 13.224C135.194 13.576 135.13 13.96 134.954 14.376L131.594 22.752C131.402 23.248 131.13 23.616 130.778 23.856C130.442 24.096 130.034 24.216 129.554 24.216C129.09 24.216 128.682 24.096 128.33 23.856C127.994 23.616 127.722 23.248 127.514 22.752L124.634 15.264H126.194L123.386 22.728C123.194 23.224 122.93 23.6 122.594 23.856C122.258 24.096 121.85 24.216 121.37 24.216ZM143.033 24.264C141.641 24.264 140.441 24.016 139.433 23.52C138.441 23.008 137.673 22.296 137.129 21.384C136.601 20.456 136.337 19.368 136.337 18.12C136.337 16.904 136.593 15.84 137.105 14.928C137.617 14 138.329 13.28 139.241 12.768C140.169 12.24 141.217 11.976 142.385 11.976C143.233 11.976 144.001 12.12 144.689 12.408C145.377 12.68 145.969 13.08 146.465 13.608C146.961 14.12 147.337 14.752 147.593 15.504C147.849 16.24 147.977 17.064 147.977 17.976C147.977 18.28 147.881 18.512 147.689 18.672C147.497 18.816 147.217 18.888 146.849 18.888H139.313V17.016H145.361L144.977 17.352C144.977 16.696 144.881 16.152 144.689 15.72C144.497 15.272 144.217 14.936 143.849 14.712C143.497 14.488 143.057 14.376 142.529 14.376C141.937 14.376 141.433 14.512 141.017 14.784C140.601 15.056 140.281 15.448 140.057 15.96C139.833 16.472 139.721 17.088 139.721 17.808V18C139.721 19.216 140.001 20.112 140.561 20.688C141.137 21.264 141.985 21.552 143.105 21.552C143.489 21.552 143.929 21.504 144.425 21.408C144.921 21.312 145.385 21.16 145.817 20.952C146.185 20.776 146.513 20.72 146.801 20.784C147.089 20.832 147.313 20.96 147.473 21.168C147.633 21.376 147.721 21.616 147.737 21.888C147.769 22.16 147.713 22.432 147.569 22.704C147.425 22.96 147.185 23.176 146.849 23.352C146.305 23.656 145.689 23.88 145.001 24.024C144.329 24.184 143.673 24.264 143.033 24.264ZM157.356 24.264C156.412 24.264 155.572 24.032 154.836 23.568C154.116 23.088 153.636 22.456 153.396 21.672L153.66 20.88V22.368C153.66 22.96 153.508 23.416 153.204 23.736C152.9 24.056 152.46 24.216 151.884 24.216C151.308 24.216 150.86 24.056 150.54 23.736C150.236 23.416 150.084 22.96 150.084 22.368V8.712C150.084 8.104 150.236 7.648 150.54 7.344C150.86 7.024 151.316 6.864 151.908 6.864C152.484 6.864 152.924 7.024 153.228 7.344C153.548 7.648 153.708 8.104 153.708 8.712V14.4H153.42C153.676 13.68 154.164 13.096 154.884 12.648C155.604 12.2 156.428 11.976 157.356 11.976C158.396 11.976 159.3 12.224 160.068 12.72C160.836 13.216 161.436 13.92 161.868 14.832C162.3 15.744 162.516 16.832 162.516 18.096C162.516 19.36 162.3 20.456 161.868 21.384C161.436 22.312 160.828 23.024 160.044 23.52C159.276 24.016 158.38 24.264 157.356 24.264ZM156.276 21.552C156.788 21.552 157.236 21.424 157.62 21.168C158.02 20.912 158.324 20.536 158.532 20.04C158.756 19.528 158.868 18.88 158.868 18.096C158.868 16.928 158.628 16.072 158.148 15.528C157.668 14.968 157.044 14.688 156.276 14.688C155.764 14.688 155.308 14.808 154.908 15.048C154.524 15.288 154.22 15.664 153.996 16.176C153.772 16.672 153.66 17.312 153.66 18.096C153.66 19.264 153.9 20.136 154.38 20.712C154.86 21.272 155.492 21.552 156.276 21.552Z" fill="#120A0B"/>
</svg>
