<svg width="176" height="32" viewBox="0 0 176 32" fill="none" xmlns="http://www.w3.org/2000/svg">
<path fill-rule="evenodd" clip-rule="evenodd" d="M34 0C28.4772 0 24 4.47715 24 10V22C24 27.5228 28.4772 32 34 32H46C51.5228 32 56 27.5228 56 22V10C56 4.47715 51.5228 0 46 0L34 0ZM33.0865 24.3176L36.5037 24.3176V10.7281L41.4435 24.3176H46.9134V7.68241H43.5074L43.5074 21.4363L38.5225 7.68241H33.0865L33.0865 24.3176Z" fill="#F8F4F1"/>
<path d="M69.4242 23H65.7882V5.3H71.5722L77.5002 21.656L76.8762 21.812V5.3H80.5002V23H74.6802L68.7522 6.692L69.4242 6.536V23ZM84.8527 17.744V15.284H93.3007L92.9407 15.908C92.9407 15.844 92.9407 15.784 92.9407 15.728C92.9407 15.664 92.9407 15.604 92.9407 15.548C92.9407 15.092 92.8327 14.656 92.6167 14.24C92.4007 13.816 92.0647 13.472 91.6087 13.208C91.1607 12.936 90.5847 12.8 89.8807 12.8C89.1767 12.8 88.5687 12.952 88.0567 13.256C87.5527 13.552 87.1647 13.98 86.8927 14.54C86.6287 15.1 86.4967 15.776 86.4967 16.568C86.4967 17.384 86.6247 18.084 86.8807 18.668C87.1447 19.244 87.5327 19.688 88.0447 20C88.5647 20.312 89.2087 20.468 89.9767 20.468C90.4727 20.468 90.9007 20.424 91.2607 20.336C91.6207 20.24 91.9127 20.12 92.1367 19.976C92.3687 19.832 92.5447 19.672 92.6647 19.496C92.7847 19.32 92.8567 19.148 92.8807 18.98H96.5527C96.5047 19.516 96.3207 20.044 96.0007 20.564C95.6807 21.076 95.2367 21.54 94.6687 21.956C94.1007 22.364 93.4087 22.688 92.5927 22.928C91.7847 23.168 90.8607 23.288 89.8207 23.288C88.4127 23.288 87.1847 23.008 86.1367 22.448C85.0887 21.88 84.2767 21.1 83.7007 20.108C83.1247 19.108 82.8367 17.956 82.8367 16.652C82.8367 15.332 83.1287 14.176 83.7127 13.184C84.3047 12.184 85.1247 11.408 86.1727 10.856C87.2287 10.296 88.4487 10.016 89.8327 10.016C91.2487 10.016 92.4727 10.3 93.5047 10.868C94.5367 11.428 95.3327 12.216 95.8927 13.232C96.4527 14.24 96.7327 15.416 96.7327 16.76C96.7327 16.96 96.7287 17.152 96.7207 17.336C96.7127 17.52 96.7007 17.656 96.6847 17.744H84.8527ZM105.228 23.264C104.74 23.264 104.236 23.22 103.716 23.132C103.204 23.052 102.724 22.888 102.276 22.64C101.836 22.384 101.48 22.012 101.208 21.524C100.936 21.036 100.8 20.392 100.8 19.592C100.8 19.416 100.8 19.236 100.8 19.052C100.8 18.868 100.8 18.684 100.8 18.5V13.136H97.8597V10.256H98.6877C99.1677 10.256 99.5477 10.236 99.8277 10.196C100.116 10.156 100.328 10.056 100.464 9.896C100.608 9.728 100.7 9.468 100.74 9.116C100.78 8.764 100.8 8.28 100.8 7.664V6.056H104.532V10.256H108.24V13.136H104.532V17.72C104.532 17.864 104.532 18.004 104.532 18.14C104.532 18.276 104.532 18.408 104.532 18.536C104.532 19.088 104.596 19.536 104.724 19.88C104.86 20.224 105.192 20.396 105.72 20.396C105.984 20.396 106.232 20.372 106.464 20.324C106.704 20.276 106.884 20.228 107.004 20.18V22.976C106.836 23.048 106.6 23.112 106.296 23.168C105.992 23.232 105.636 23.264 105.228 23.264ZM115.518 23.288C114.454 23.288 113.474 23.036 112.578 22.532C111.682 22.02 110.962 21.264 110.418 20.264C109.874 19.264 109.602 18.032 109.602 16.568C109.602 15.168 109.878 13.98 110.43 13.004C110.99 12.028 111.718 11.288 112.614 10.784C113.518 10.272 114.486 10.016 115.518 10.016C116.526 10.016 117.446 10.272 118.278 10.784C119.118 11.296 119.79 11.996 120.294 12.884C120.798 13.764 121.05 14.78 121.05 15.932C121.05 15.972 121.05 16.012 121.05 16.052C121.05 16.084 121.05 16.12 121.05 16.16L119.442 16.184C119.442 16.16 119.442 16.136 119.442 16.112C119.442 16.08 119.442 16.052 119.442 16.028C119.442 15.428 119.298 14.912 119.01 14.48C118.722 14.048 118.35 13.716 117.894 13.484C117.438 13.244 116.962 13.124 116.466 13.124C115.642 13.124 114.93 13.4 114.33 13.952C113.73 14.496 113.43 15.368 113.43 16.568C113.43 17.768 113.73 18.652 114.33 19.22C114.938 19.78 115.65 20.06 116.466 20.06C116.978 20.06 117.462 19.94 117.918 19.7C118.374 19.452 118.742 19.104 119.022 18.656C119.302 18.208 119.442 17.68 119.442 17.072L121.05 17.156C121.05 18.3 120.802 19.336 120.306 20.264C119.818 21.184 119.154 21.92 118.314 22.472C117.482 23.016 116.55 23.288 115.518 23.288ZM119.442 23V4.244H123.174V23H119.442ZM132.395 23.276C131.019 23.276 129.807 22.992 128.759 22.424C127.711 21.856 126.891 21.076 126.299 20.084C125.715 19.084 125.423 17.932 125.423 16.628C125.423 15.332 125.715 14.188 126.299 13.196C126.891 12.196 127.711 11.42 128.759 10.868C129.807 10.308 131.019 10.028 132.395 10.028C133.771 10.028 134.983 10.308 136.031 10.868C137.079 11.42 137.895 12.196 138.479 13.196C139.071 14.188 139.367 15.332 139.367 16.628C139.367 17.932 139.071 19.084 138.479 20.084C137.895 21.076 137.079 21.856 136.031 22.424C134.983 22.992 133.771 23.276 132.395 23.276ZM132.395 20.324C133.043 20.324 133.607 20.172 134.087 19.868C134.567 19.564 134.939 19.136 135.203 18.584C135.467 18.024 135.599 17.372 135.599 16.628C135.599 15.884 135.467 15.24 135.203 14.696C134.939 14.144 134.567 13.72 134.087 13.424C133.607 13.128 133.043 12.98 132.395 12.98C131.755 12.98 131.191 13.128 130.703 13.424C130.223 13.72 129.851 14.144 129.587 14.696C129.323 15.24 129.191 15.884 129.191 16.628C129.191 17.372 129.323 18.024 129.587 18.584C129.851 19.136 130.223 19.564 130.703 19.868C131.191 20.172 131.755 20.324 132.395 20.324ZM147.861 23.264C147.373 23.264 146.869 23.22 146.349 23.132C145.837 23.052 145.357 22.888 144.909 22.64C144.469 22.384 144.113 22.012 143.841 21.524C143.569 21.036 143.433 20.392 143.433 19.592C143.433 19.416 143.433 19.236 143.433 19.052C143.433 18.868 143.433 18.684 143.433 18.5V13.136H140.493V10.256H141.321C141.801 10.256 142.181 10.236 142.461 10.196C142.749 10.156 142.961 10.056 143.097 9.896C143.241 9.728 143.333 9.468 143.373 9.116C143.413 8.764 143.433 8.28 143.433 7.664V6.056H147.165V10.256H150.873V13.136H147.165V17.72C147.165 17.864 147.165 18.004 147.165 18.14C147.165 18.276 147.165 18.408 147.165 18.536C147.165 19.088 147.229 19.536 147.357 19.88C147.493 20.224 147.825 20.396 148.353 20.396C148.617 20.396 148.865 20.372 149.097 20.324C149.337 20.276 149.517 20.228 149.637 20.18V22.976C149.469 23.048 149.233 23.112 148.929 23.168C148.625 23.232 148.269 23.264 147.861 23.264Z" fill="#F8F4F1"/>
</svg>
