<svg width="176" height="32" viewBox="0 0 176 32" fill="none" xmlns="http://www.w3.org/2000/svg">
<path fill-rule="evenodd" clip-rule="evenodd" d="M47.4065 27.6686C47.4065 30.7428 46.3369 32 43.4237 32H18.5735C15.6591 32 14.5907 30.7428 14.5907 27.6686V21.6823C14.5907 18.7955 13.2001 17.1647 11.8636 16.4172C11.7717 16.3614 11.6957 16.2829 11.6429 16.1892C11.6217 16.1514 11.6045 16.1116 11.5914 16.0706C11.5723 16.0099 11.5625 15.9464 11.5625 15.8823C11.5625 15.7748 11.5902 15.6691 11.6429 15.5754C11.6957 15.4818 11.7717 15.4033 11.8636 15.3475C13.2543 14.4654 14.5907 12.6205 14.5907 10.1616V4.27858C14.5907 0.963936 15.4993 0 18.4125 0H43.5847C46.4993 0 47.4078 0.963936 47.4078 4.27858V10.1591C47.4078 12.618 48.7443 14.4629 50.1335 15.3437C50.5363 15.6118 50.5363 16.1743 50.1335 16.4134C48.7971 17.1886 47.4078 18.8195 47.4078 21.6798V27.6673L47.4065 27.6686ZM27.891 23.776C28.979 24.416 30.179 24.736 31.491 24.736C32.515 24.736 33.555 24.536 34.611 24.136C35.683 23.736 36.715 23.136 37.707 22.336L36.435 20.344C35.731 20.888 35.027 21.296 34.323 21.568C33.635 21.824 32.979 21.952 32.355 21.952C31.523 21.952 30.771 21.728 30.099 21.28C29.443 20.816 28.923 20.12 28.539 19.192C28.171 18.248 27.987 17.072 27.987 15.664C27.987 14.464 28.147 13.432 28.467 12.568C28.787 11.704 29.259 11.048 29.883 10.6C30.507 10.136 31.275 9.90404 32.187 9.90404C32.619 9.90404 33.091 9.96004 33.603 10.072C33.9602 10.1502 34.3291 10.2556 34.7097 10.3882L35.211 12.832H37.251L37.467 8.51204C36.459 8.09604 35.515 7.78404 34.635 7.57604C33.755 7.36804 32.899 7.26404 32.067 7.26404C30.499 7.26404 29.131 7.61604 27.963 8.32004C26.795 9.02404 25.891 10.032 25.251 11.344C24.611 12.656 24.291 14.24 24.291 16.096C24.291 17.984 24.619 19.576 25.275 20.872C25.931 22.152 26.803 23.12 27.891 23.776Z" fill="#F8F4F1"/>
<path d="M66.8285 24.288C65.5165 24.288 64.3165 23.968 63.2285 23.328C62.1405 22.672 61.2685 21.704 60.6125 20.424C59.9565 19.128 59.6285 17.536 59.6285 15.648C59.6285 13.792 59.9485 12.208 60.5885 10.896C61.2285 9.584 62.1325 8.576 63.3005 7.872C64.4685 7.168 65.8365 6.816 67.4045 6.816C68.2365 6.816 69.0925 6.92 69.9725 7.128C70.8525 7.336 71.7965 7.648 72.8045 8.064L72.5885 12.384H70.5485L69.9725 9.576L70.5485 10.128C69.9885 9.904 69.4525 9.736 68.9405 9.624C68.4285 9.512 67.9565 9.456 67.5245 9.456C66.6125 9.456 65.8445 9.688 65.2205 10.152C64.5965 10.6 64.1245 11.256 63.8045 12.12C63.4845 12.984 63.3245 14.016 63.3245 15.216C63.3245 16.624 63.5085 17.8 63.8765 18.744C64.2605 19.672 64.7805 20.368 65.4365 20.832C66.1085 21.28 66.8605 21.504 67.6925 21.504C68.3165 21.504 68.9725 21.376 69.6605 21.12C70.3645 20.848 71.0685 20.44 71.7725 19.896L73.0445 21.888C72.0525 22.688 71.0205 23.288 69.9485 23.688C68.8925 24.088 67.8525 24.288 66.8285 24.288ZM80.397 10.896C82.285 10.896 83.757 11.456 84.813 12.576C85.869 13.696 86.397 15.288 86.397 17.352C86.397 18.792 86.141 20.032 85.629 21.072C85.117 22.096 84.381 22.888 83.421 23.448C82.461 24.008 81.309 24.288 79.965 24.288C78.077 24.288 76.613 23.728 75.573 22.608C74.549 21.488 74.037 19.896 74.037 17.832C74.037 16.392 74.285 15.16 74.781 14.136C75.293 13.096 76.021 12.296 76.965 11.736C77.909 11.176 79.053 10.896 80.397 10.896ZM80.229 13.296C79.317 13.296 78.637 13.656 78.189 14.376C77.741 15.08 77.517 16.176 77.517 17.664C77.517 19.152 77.733 20.232 78.165 20.904C78.597 21.56 79.253 21.888 80.133 21.888C80.773 21.888 81.293 21.728 81.693 21.408C82.093 21.088 82.397 20.6 82.605 19.944C82.813 19.288 82.917 18.48 82.917 17.52C82.917 16.064 82.693 15 82.245 14.328C81.797 13.64 81.125 13.296 80.229 13.296ZM92.6645 24.288C91.7365 24.288 90.9125 24.048 90.1925 23.568C89.4885 23.072 88.9285 22.344 88.5125 21.384C88.1125 20.424 87.9125 19.256 87.9125 17.88C87.9125 15.512 88.5125 13.76 89.7125 12.624C90.9125 11.472 92.6005 10.896 94.7765 10.896C95.1285 10.896 95.4805 10.912 95.8325 10.944C96.1845 10.976 96.5525 11.032 96.9365 11.112L96.3125 11.496V7.536L96.5525 7.872L94.5845 7.224V5.52L99.6725 5.328V22.128L99.2645 21.648L101.281 22.272V23.976L97.0565 24.168L96.6245 22.104L96.9605 22.224C96.2565 22.912 95.5525 23.432 94.8485 23.784C94.1605 24.12 93.4325 24.288 92.6645 24.288ZM93.9605 21.816C94.3765 21.816 94.8165 21.704 95.2805 21.48C95.7445 21.24 96.2245 20.896 96.7205 20.448L96.3125 21.456V12.84L96.7205 13.608C95.9685 13.4 95.2885 13.296 94.6805 13.296C93.5445 13.296 92.7125 13.68 92.1845 14.448C91.6725 15.2 91.4165 16.24 91.4165 17.568C91.4165 18.432 91.5205 19.184 91.7285 19.824C91.9365 20.464 92.2245 20.96 92.5925 21.312C92.9765 21.648 93.4325 21.816 93.9605 21.816ZM108.229 24.288C107.061 24.288 106.037 24.048 105.157 23.568C104.277 23.072 103.589 22.344 103.093 21.384C102.613 20.408 102.373 19.224 102.373 17.832C102.373 16.392 102.629 15.16 103.141 14.136C103.669 13.096 104.405 12.296 105.349 11.736C106.293 11.176 107.405 10.896 108.685 10.896C109.933 10.896 110.949 11.144 111.733 11.64C112.517 12.136 113.093 12.816 113.461 13.68C113.829 14.528 114.013 15.488 114.013 16.56C114.013 16.832 113.997 17.104 113.965 17.376C113.949 17.648 113.917 17.936 113.869 18.24H105.085V16.248H110.989L110.557 16.56C110.573 15.92 110.509 15.36 110.365 14.88C110.237 14.384 110.013 14 109.693 13.728C109.389 13.456 108.965 13.32 108.421 13.32C107.797 13.32 107.293 13.504 106.909 13.872C106.525 14.224 106.245 14.704 106.069 15.312C105.909 15.92 105.829 16.6 105.829 17.352C105.829 18.2 105.933 18.96 106.141 19.632C106.349 20.304 106.685 20.832 107.149 21.216C107.629 21.6 108.253 21.792 109.021 21.792C109.565 21.792 110.149 21.696 110.773 21.504C111.413 21.296 112.077 20.992 112.765 20.592L113.893 22.392C112.965 23.032 112.013 23.512 111.037 23.832C110.077 24.136 109.141 24.288 108.229 24.288ZM125.649 18.912H127.689V24H115.665V22.272L117.825 21.648L117.441 22.32V8.88L117.825 9.528L115.665 8.952V7.224L122.793 7.104V8.832L120.513 9.528L120.873 8.88V22.056L120.345 21.528H125.577L125.097 22.08L125.649 18.912ZM133.637 22.032L133.397 21.744L135.245 22.272V24H128.669V22.272L130.517 21.744L130.277 22.032V13.272L130.493 13.488L128.669 12.984V11.256L133.637 11.088V22.032ZM131.861 9.216C131.269 9.216 130.789 9.048 130.421 8.712C130.069 8.376 129.893 7.896 129.893 7.272C129.893 6.6 130.077 6.104 130.445 5.784C130.829 5.448 131.309 5.28 131.885 5.28C132.445 5.28 132.909 5.448 133.277 5.784C133.645 6.104 133.829 6.592 133.829 7.248C133.829 7.904 133.637 8.4 133.253 8.736C132.885 9.056 132.421 9.216 131.861 9.216ZM136.309 24V22.272L138.325 21.696L137.917 22.176V13.032L138.325 13.584L136.309 12.984V11.256L140.533 11.064L140.965 13.368L140.533 13.2C141.301 12.416 142.117 11.84 142.981 11.472C143.845 11.088 144.669 10.896 145.453 10.896C146.541 10.896 147.445 11.24 148.165 11.928C148.885 12.6 149.237 13.624 149.221 15V22.176L148.909 21.696L150.829 22.272V24H144.421V22.272L146.245 21.744L145.861 22.248V15.72C145.861 14.936 145.685 14.36 145.333 13.992C144.997 13.624 144.549 13.44 143.989 13.44C143.557 13.44 143.085 13.56 142.573 13.8C142.061 14.04 141.557 14.4 141.061 14.88L141.277 14.376V22.248L140.965 21.744L142.717 22.272V24H136.309ZM157.659 24.288C156.491 24.288 155.467 24.048 154.587 23.568C153.707 23.072 153.019 22.344 152.523 21.384C152.043 20.408 151.803 19.224 151.803 17.832C151.803 16.392 152.059 15.16 152.571 14.136C153.099 13.096 153.835 12.296 154.779 11.736C155.723 11.176 156.835 10.896 158.115 10.896C159.363 10.896 160.379 11.144 161.163 11.64C161.947 12.136 162.523 12.816 162.891 13.68C163.259 14.528 163.443 15.488 163.443 16.56C163.443 16.832 163.427 17.104 163.395 17.376C163.379 17.648 163.347 17.936 163.299 18.24H154.515V16.248H160.419L159.987 16.56C160.003 15.92 159.939 15.36 159.795 14.88C159.667 14.384 159.443 14 159.123 13.728C158.819 13.456 158.395 13.32 157.851 13.32C157.227 13.32 156.723 13.504 156.339 13.872C155.955 14.224 155.675 14.704 155.499 15.312C155.339 15.92 155.259 16.6 155.259 17.352C155.259 18.2 155.363 18.96 155.571 19.632C155.779 20.304 156.115 20.832 156.579 21.216C157.059 21.6 157.683 21.792 158.451 21.792C158.995 21.792 159.579 21.696 160.203 21.504C160.843 21.296 161.507 20.992 162.195 20.592L163.323 22.392C162.395 23.032 161.443 23.512 160.467 23.832C159.507 24.136 158.571 24.288 157.659 24.288Z" fill="#F8F4F1"/>
</svg>
