<svg width="176" height="32" viewBox="0 0 176 32" fill="none" xmlns="http://www.w3.org/2000/svg">
<path d="M50.1799 6.1869C51.0126 3.79482 49.833 1.14987 47.5453 0.279223C45.2576 -0.59142 42.728 0.641943 41.8953 3.03402L33.966 25.8131C33.1334 28.2052 34.3129 30.8501 36.6007 31.7208C38.8884 32.5914 41.418 31.358 42.2507 28.966L50.1799 6.1869Z" fill="#818CF8"/>
<path d="M12.8198 6.18691C11.9871 3.79484 13.1667 1.14988 15.4544 0.279236C17.7422 -0.591408 20.2717 0.641955 21.1044 3.03403L29.0337 25.8131C29.8664 28.2052 28.6868 30.8501 26.3991 31.7208C24.1113 32.5914 21.5817 31.3581 20.7491 28.966L12.8198 6.18691Z" fill="#4F46E5"/>
<path d="M26.049 6.18691C25.2164 3.79484 26.3959 1.14988 28.6837 0.279236C30.9714 -0.591408 33.501 0.641955 34.3337 3.03403L42.2629 25.8131C43.0956 28.2052 41.916 30.8501 39.6283 31.7208C37.3406 32.5914 34.811 31.3581 33.9783 28.966L26.049 6.18691Z" fill="#4F46E5"/>
<path d="M66.7434 24.216C66.2314 24.216 65.8154 24.096 65.4954 23.856C65.1754 23.6 64.9194 23.216 64.7274 22.704L59.8794 9.072C59.6714 8.464 59.7114 7.944 59.9994 7.512C60.3034 7.08 60.8234 6.864 61.5594 6.864C62.0714 6.864 62.4634 6.984 62.7354 7.224C63.0234 7.464 63.2554 7.84 63.4314 8.352L67.3914 20.136H66.3594L70.5354 8.376C70.7274 7.864 70.9594 7.488 71.2314 7.248C71.5194 6.992 71.8954 6.864 72.3594 6.864C72.8074 6.864 73.1674 6.992 73.4394 7.248C73.7114 7.488 73.9434 7.872 74.1354 8.4L78.1194 20.136H77.2314L81.2634 8.352C81.4234 7.856 81.6474 7.488 81.9354 7.248C82.2234 6.992 82.6154 6.864 83.1114 6.864C83.7354 6.864 84.1914 7.08 84.4794 7.512C84.7674 7.944 84.7994 8.464 84.5754 9.072L79.6794 22.728C79.5034 23.224 79.2634 23.6 78.9594 23.856C78.6554 24.096 78.2394 24.216 77.7114 24.216C77.1994 24.216 76.7914 24.096 76.4874 23.856C76.1834 23.6 75.9354 23.216 75.7434 22.704L71.9514 11.976H72.5274L68.6874 22.728C68.4954 23.224 68.2474 23.6 67.9434 23.856C67.6554 24.096 67.2554 24.216 66.7434 24.216ZM91.6233 24.264C90.2313 24.264 89.0313 24.016 88.0233 23.52C87.0313 23.008 86.2633 22.296 85.7193 21.384C85.1913 20.456 84.9273 19.368 84.9273 18.12C84.9273 16.904 85.1833 15.84 85.6953 14.928C86.2073 14 86.9193 13.28 87.8313 12.768C88.7593 12.24 89.8073 11.976 90.9753 11.976C91.8233 11.976 92.5913 12.12 93.2793 12.408C93.9673 12.68 94.5593 13.08 95.0553 13.608C95.5513 14.12 95.9273 14.752 96.1833 15.504C96.4393 16.24 96.5673 17.064 96.5673 17.976C96.5673 18.28 96.4713 18.512 96.2793 18.672C96.0873 18.816 95.8073 18.888 95.4393 18.888H87.9033V17.016H93.9513L93.5673 17.352C93.5673 16.696 93.4713 16.152 93.2793 15.72C93.0873 15.272 92.8073 14.936 92.4393 14.712C92.0873 14.488 91.6473 14.376 91.1193 14.376C90.5273 14.376 90.0233 14.512 89.6073 14.784C89.1913 15.056 88.8713 15.448 88.6473 15.96C88.4233 16.472 88.3113 17.088 88.3113 17.808V18C88.3113 19.216 88.5913 20.112 89.1513 20.688C89.7273 21.264 90.5753 21.552 91.6953 21.552C92.0793 21.552 92.5193 21.504 93.0153 21.408C93.5113 21.312 93.9753 21.16 94.4073 20.952C94.7753 20.776 95.1033 20.72 95.3913 20.784C95.6793 20.832 95.9033 20.96 96.0633 21.168C96.2233 21.376 96.3113 21.616 96.3273 21.888C96.3593 22.16 96.3033 22.432 96.1593 22.704C96.0153 22.96 95.7753 23.176 95.4393 23.352C94.8953 23.656 94.2793 23.88 93.5913 24.024C92.9193 24.184 92.2633 24.264 91.6233 24.264ZM105.947 24.264C105.003 24.264 104.163 24.032 103.427 23.568C102.707 23.088 102.227 22.456 101.987 21.672L102.251 20.88V22.368C102.251 22.96 102.099 23.416 101.795 23.736C101.491 24.056 101.051 24.216 100.475 24.216C99.8992 24.216 99.4512 24.056 99.1312 23.736C98.8272 23.416 98.6752 22.96 98.6752 22.368V8.712C98.6752 8.104 98.8272 7.648 99.1312 7.344C99.4512 7.024 99.9072 6.864 100.499 6.864C101.075 6.864 101.515 7.024 101.819 7.344C102.139 7.648 102.299 8.104 102.299 8.712V14.4H102.011C102.267 13.68 102.755 13.096 103.475 12.648C104.195 12.2 105.019 11.976 105.947 11.976C106.987 11.976 107.891 12.224 108.659 12.72C109.427 13.216 110.027 13.92 110.459 14.832C110.891 15.744 111.107 16.832 111.107 18.096C111.107 19.36 110.891 20.456 110.459 21.384C110.027 22.312 109.419 23.024 108.635 23.52C107.867 24.016 106.971 24.264 105.947 24.264ZM104.867 21.552C105.379 21.552 105.827 21.424 106.211 21.168C106.611 20.912 106.915 20.536 107.123 20.04C107.347 19.528 107.459 18.88 107.459 18.096C107.459 16.928 107.219 16.072 106.739 15.528C106.259 14.968 105.635 14.688 104.867 14.688C104.355 14.688 103.899 14.808 103.499 15.048C103.115 15.288 102.811 15.664 102.587 16.176C102.363 16.672 102.251 17.312 102.251 18.096C102.251 19.264 102.491 20.136 102.971 20.712C103.451 21.272 104.083 21.552 104.867 21.552ZM118.988 28.584C118.124 28.584 117.292 28.512 116.492 28.368C115.708 28.224 115.012 28.008 114.404 27.72C114.036 27.56 113.772 27.352 113.612 27.096C113.468 26.84 113.404 26.568 113.42 26.28C113.452 25.992 113.548 25.736 113.708 25.512C113.884 25.288 114.1 25.128 114.356 25.032C114.612 24.952 114.884 24.976 115.172 25.104C115.876 25.424 116.524 25.632 117.116 25.728C117.724 25.824 118.244 25.872 118.676 25.872C119.7 25.872 120.468 25.64 120.98 25.176C121.492 24.712 121.748 24 121.748 23.04V21.216H121.964C121.724 21.952 121.228 22.552 120.476 23.016C119.724 23.48 118.892 23.712 117.98 23.712C116.924 23.712 116.004 23.472 115.22 22.992C114.436 22.496 113.828 21.808 113.396 20.928C112.964 20.032 112.748 19 112.748 17.832C112.748 16.952 112.868 16.152 113.108 15.432C113.364 14.712 113.716 14.096 114.164 13.584C114.628 13.072 115.18 12.68 115.82 12.408C116.476 12.12 117.196 11.976 117.98 11.976C118.924 11.976 119.756 12.208 120.476 12.672C121.212 13.12 121.7 13.712 121.94 14.448L121.7 15.216V13.848C121.7 13.256 121.852 12.808 122.156 12.504C122.476 12.184 122.924 12.024 123.5 12.024C124.076 12.024 124.516 12.184 124.82 12.504C125.124 12.808 125.276 13.256 125.276 13.848V22.632C125.276 24.6 124.732 26.08 123.644 27.072C122.572 28.08 121.02 28.584 118.988 28.584ZM119.06 21C119.604 21 120.068 20.872 120.452 20.616C120.852 20.36 121.164 20 121.388 19.536C121.612 19.056 121.724 18.488 121.724 17.832C121.724 16.84 121.476 16.072 120.98 15.528C120.5 14.968 119.86 14.688 119.06 14.688C118.516 14.688 118.044 14.816 117.644 15.072C117.244 15.312 116.932 15.672 116.708 16.152C116.5 16.616 116.396 17.176 116.396 17.832C116.396 18.824 116.636 19.6 117.116 20.16C117.596 20.72 118.244 21 119.06 21ZM134.209 24.264C132.817 24.264 131.617 24.016 130.609 23.52C129.617 23.008 128.849 22.296 128.305 21.384C127.777 20.456 127.513 19.368 127.513 18.12C127.513 16.904 127.769 15.84 128.281 14.928C128.793 14 129.505 13.28 130.417 12.768C131.345 12.24 132.393 11.976 133.561 11.976C134.409 11.976 135.177 12.12 135.865 12.408C136.553 12.68 137.145 13.08 137.641 13.608C138.137 14.12 138.513 14.752 138.769 15.504C139.025 16.24 139.153 17.064 139.153 17.976C139.153 18.28 139.057 18.512 138.865 18.672C138.673 18.816 138.393 18.888 138.025 18.888H130.489V17.016H136.537L136.153 17.352C136.153 16.696 136.057 16.152 135.865 15.72C135.673 15.272 135.393 14.936 135.025 14.712C134.673 14.488 134.233 14.376 133.705 14.376C133.113 14.376 132.609 14.512 132.193 14.784C131.777 15.056 131.457 15.448 131.233 15.96C131.009 16.472 130.897 17.088 130.897 17.808V18C130.897 19.216 131.177 20.112 131.737 20.688C132.313 21.264 133.161 21.552 134.281 21.552C134.665 21.552 135.105 21.504 135.601 21.408C136.097 21.312 136.561 21.16 136.993 20.952C137.361 20.776 137.689 20.72 137.977 20.784C138.265 20.832 138.489 20.96 138.649 21.168C138.809 21.376 138.897 21.616 138.913 21.888C138.945 22.16 138.889 22.432 138.745 22.704C138.601 22.96 138.361 23.176 138.025 23.352C137.481 23.656 136.865 23.88 136.177 24.024C135.505 24.184 134.849 24.264 134.209 24.264ZM145.245 24.264C144.381 24.264 143.605 24.096 142.917 23.76C142.229 23.424 141.693 22.968 141.309 22.392C140.925 21.816 140.733 21.168 140.733 20.448C140.733 19.584 140.957 18.904 141.405 18.408C141.853 17.896 142.581 17.536 143.589 17.328C144.597 17.104 145.933 16.992 147.597 16.992H148.869V18.864H147.621C146.805 18.864 146.141 18.912 145.629 19.008C145.133 19.088 144.773 19.232 144.549 19.44C144.341 19.648 144.237 19.936 144.237 20.304C144.237 20.752 144.389 21.12 144.693 21.408C145.013 21.696 145.469 21.84 146.061 21.84C146.525 21.84 146.933 21.736 147.285 21.528C147.653 21.304 147.941 21.008 148.149 20.64C148.357 20.256 148.461 19.824 148.461 19.344V16.584C148.461 15.88 148.301 15.384 147.981 15.096C147.661 14.792 147.117 14.64 146.349 14.64C145.917 14.64 145.445 14.696 144.933 14.808C144.437 14.904 143.885 15.072 143.277 15.312C142.925 15.472 142.613 15.512 142.341 15.432C142.069 15.336 141.861 15.176 141.717 14.952C141.573 14.712 141.501 14.456 141.501 14.184C141.501 13.896 141.581 13.624 141.741 13.368C141.901 13.096 142.165 12.896 142.533 12.768C143.285 12.464 143.989 12.256 144.645 12.144C145.317 12.032 145.933 11.976 146.493 11.976C147.725 11.976 148.733 12.16 149.517 12.528C150.317 12.88 150.917 13.432 151.317 14.184C151.717 14.92 151.917 15.872 151.917 17.04V22.368C151.917 22.96 151.773 23.416 151.485 23.736C151.197 24.056 150.781 24.216 150.237 24.216C149.693 24.216 149.269 24.056 148.965 23.736C148.677 23.416 148.533 22.96 148.533 22.368V21.48L148.701 21.624C148.605 22.168 148.397 22.64 148.077 23.04C147.773 23.424 147.381 23.728 146.901 23.952C146.421 24.16 145.869 24.264 145.245 24.264ZM156.493 24.216C155.885 24.216 155.421 24.056 155.101 23.736C154.781 23.416 154.621 22.96 154.621 22.368V13.848C154.621 13.256 154.773 12.808 155.077 12.504C155.397 12.184 155.837 12.024 156.397 12.024C156.973 12.024 157.413 12.184 157.717 12.504C158.021 12.808 158.173 13.256 158.173 13.848V15.096H157.933C158.125 14.136 158.549 13.392 159.205 12.864C159.861 12.336 160.709 12.04 161.749 11.976C162.149 11.944 162.453 12.048 162.661 12.288C162.885 12.512 163.005 12.888 163.021 13.416C163.053 13.912 162.949 14.304 162.709 14.592C162.485 14.88 162.101 15.056 161.557 15.12L161.005 15.168C160.093 15.248 159.413 15.512 158.965 15.96C158.533 16.408 158.317 17.056 158.317 17.904V22.368C158.317 22.96 158.157 23.416 157.837 23.736C157.533 24.056 157.085 24.216 156.493 24.216Z" fill="#120A0B"/>
</svg>
