<svg width="32" height="32" viewBox="0 0 32 32" fill="none" xmlns="http://www.w3.org/2000/svg">
<path d="M29.3331 7.61333V20.3867C29.3331 24.0667 26.3464 27.0533 22.6664 27.0533H9.3331C8.71977 27.0533 8.1331 26.9733 7.55977 26.8133C6.7331 26.5867 6.46643 25.5333 7.07977 24.92L21.2531 10.7467C21.5464 10.4533 21.9864 10.3867 22.3998 10.4667C22.8264 10.5467 23.2931 10.4267 23.6264 10.1067L27.0531 6.66666C28.3064 5.41333 29.3331 5.82666 29.3331 7.61333Z" fill="#9886FE"/>
<path d="M19.5193 9.81336L5.55935 23.7734C4.91935 24.4134 3.85268 24.2534 3.42602 23.4534C2.93268 22.5467 2.66602 21.4934 2.66602 20.3867V7.61336C2.66602 5.82669 3.69268 5.41336 4.94602 6.66669L8.38602 10.12C8.90602 10.6267 9.75935 10.6267 10.2793 10.12L15.0527 5.33336C15.5727 4.81336 16.426 4.81336 16.946 5.33336L19.5327 7.92003C20.0393 8.44003 20.0393 9.29336 19.5193 9.81336Z" fill="#9886FE"/>
</svg>
