<svg width="32" height="32" viewBox="0 0 32 32" fill="none" xmlns="http://www.w3.org/2000/svg">
<path d="M10.2001 27.8804C10.1601 27.8804 10.1067 27.9071 10.0667 27.9071C7.48008 26.6271 5.37341 24.5071 4.08008 21.9204C4.08008 21.8804 4.10674 21.8271 4.10674 21.7871C5.73341 22.2671 7.41341 22.6271 9.08008 22.9071C9.37341 24.5871 9.72008 26.2538 10.2001 27.8804Z" fill="#7CE1FF"/>
<path d="M27.9207 21.9338C26.6007 24.5871 24.4007 26.7338 21.7207 28.0271C22.2274 26.3338 22.654 24.6271 22.934 22.9071C24.614 22.6271 26.2674 22.2671 27.894 21.7871C27.8807 21.8404 27.9207 21.8938 27.9207 21.9338Z" fill="#7CE1FF"/>
<path d="M28.0274 10.2803C26.3474 9.77363 24.654 9.3603 22.934 9.06697C22.654 7.34697 22.2407 5.6403 21.7207 3.97363C24.4807 5.29363 26.7074 7.5203 28.0274 10.2803Z" fill="#7CE1FF"/>
<path d="M10.1993 4.12008C9.71932 5.74674 9.37266 7.40008 9.09266 9.08008C7.37266 9.34675 5.66599 9.77341 3.97266 10.2801C5.26599 7.60008 7.41266 5.40008 10.066 4.08008C10.106 4.08008 10.1593 4.12008 10.1993 4.12008Z" fill="#7CE1FF"/>
<path d="M20.6524 8.78699C17.559 8.44033 14.439 8.44033 11.3457 8.78699C11.679 6.96033 12.1057 5.13366 12.7057 3.37366C12.7324 3.26699 12.719 3.18699 12.7324 3.08033C13.7857 2.82699 14.8657 2.66699 15.999 2.66699C17.119 2.66699 18.2124 2.82699 19.2524 3.08033C19.2657 3.18699 19.2657 3.26699 19.2924 3.37366C19.8924 5.14699 20.319 6.96033 20.6524 8.78699Z" fill="#7CE1FF"/>
<path d="M8.78602 20.6533C6.94602 20.32 5.13268 19.8933 3.37268 19.2933C3.26602 19.2667 3.18602 19.28 3.07935 19.2667C2.82602 18.2133 2.66602 17.1333 2.66602 16C2.66602 14.88 2.82602 13.7867 3.07935 12.7467C3.18602 12.7333 3.26602 12.7333 3.37268 12.7067C5.14602 12.12 6.94602 11.68 8.78602 11.3467C8.45268 14.44 8.45268 17.56 8.78602 20.6533Z" fill="#7CE1FF"/>
<path d="M29.3329 16C29.3329 17.1333 29.1729 18.2133 28.9196 19.2667C28.8129 19.28 28.7329 19.2667 28.6262 19.2933C26.8529 19.88 25.0396 20.32 23.2129 20.6533C23.5596 17.56 23.5596 14.44 23.2129 11.3467C25.0396 11.68 26.8662 12.1067 28.6262 12.7067C28.7329 12.7333 28.8129 12.7467 28.9196 12.7467C29.1729 13.8 29.3329 14.88 29.3329 16Z" fill="#7CE1FF"/>
<path d="M20.6524 23.2129C20.319 25.0529 19.8924 26.8662 19.2924 28.6262C19.2657 28.7329 19.2657 28.8129 19.2524 28.9196C18.2124 29.1729 17.119 29.3329 15.999 29.3329C14.8657 29.3329 13.7857 29.1729 12.7324 28.9196C12.719 28.8129 12.7324 28.7329 12.7057 28.6262C12.119 26.8529 11.679 25.0529 11.3457 23.2129C12.8924 23.3862 14.439 23.5062 15.999 23.5062C17.559 23.5062 19.119 23.3862 20.6524 23.2129Z" fill="#7CE1FF"/>
<path d="M21.0171 21.0181C17.6823 21.4388 14.3164 21.4388 10.9816 21.0181C10.5608 17.6833 10.5608 14.3173 10.9816 10.9826C14.3164 10.5618 17.6823 10.5618 21.0171 10.9826C21.4379 14.3173 21.4379 17.6833 21.0171 21.0181Z" fill="#7CE1FF"/>
</svg>
