<svg width="44" height="44" viewBox="0 0 44 44" fill="none" xmlns="http://www.w3.org/2000/svg">
<path fill-rule="evenodd" clip-rule="evenodd" d="M40.1493 37.6796C40.1493 41.8107 38.9662 43.5 35.7437 43.5H8.2553C5.03146 43.5 3.84968 41.8107 3.84968 37.6796V29.6356C3.84968 25.7565 2.31142 23.565 0.833118 22.5606C0.731441 22.4857 0.647317 22.3802 0.588985 22.2543C0.565489 22.2035 0.54645 22.15 0.532002 22.0948C0.510802 22.0133 0.5 21.928 0.5 21.8419C0.5 21.6974 0.530652 21.5554 0.588985 21.4295C0.647317 21.3036 0.731441 21.1981 0.833118 21.1232C2.37138 19.9379 3.84968 17.4589 3.84968 14.1547V6.24934C3.84968 1.79529 4.85471 0.5 8.0772 0.5H35.9218C39.1458 0.5 40.1508 1.79529 40.1508 6.24934V14.1513C40.1508 17.4555 41.6291 19.9345 43.1659 21.1181C43.6114 21.4783 43.6114 22.2342 43.1659 22.5555C41.6876 23.5971 40.1508 25.7886 40.1508 29.6322V37.678L40.1493 37.6796ZM18.562 32.4492C19.7655 33.3092 21.0929 33.7392 22.5442 33.7392C23.6769 33.7392 24.8273 33.4705 25.9954 32.933C27.1812 32.3955 28.3228 31.5892 29.4201 30.5142L28.0131 27.8375C27.2343 28.5685 26.4556 29.1167 25.6769 29.4822C24.9158 29.8262 24.1902 29.9982 23.4999 29.9982C22.5796 29.9982 21.7478 29.6972 21.0044 29.0952C20.2788 28.4717 19.7036 27.5365 19.2788 26.2895C18.8717 25.021 18.6682 23.4407 18.6682 21.5487C18.6682 19.9362 18.8452 18.5495 19.1992 17.3885C19.5531 16.2275 20.0752 15.346 20.7655 14.744C21.4557 14.1205 22.3053 13.8087 23.3141 13.8087C23.792 13.8087 24.3141 13.884 24.8804 14.0345C25.2756 14.1395 25.6836 14.2811 26.1046 14.4594L26.6591 17.7432H28.9157L29.1546 11.9382C28.0396 11.3792 26.9954 10.96 26.022 10.6805C25.0486 10.401 24.1017 10.2612 23.1814 10.2612C21.4469 10.2612 19.9337 10.7342 18.6417 11.6802C17.3497 12.6262 16.3497 13.9807 15.6417 15.7437C14.9338 17.5067 14.5798 19.6352 14.5798 22.1292C14.5798 24.6662 14.9426 26.8055 15.6683 28.547C16.3939 30.267 17.3585 31.5677 18.562 32.4492Z" fill="white"/>
</svg>
