<svg width="56" height="56" viewBox="0 0 56 56" fill="none" xmlns="http://www.w3.org/2000/svg">
<rect width="56" height="56" rx="28" fill="white"/>
<g clip-path="url(#clip0_16955_3534)">
<path fill-rule="evenodd" clip-rule="evenodd" d="M33.0001 20.5168C31.5201 19.5279 29.78 19 28 19V10C31.56 10 35.0402 11.0557 38.0003 13.0335C40.9604 15.0114 43.2674 17.8226 44.6298 21.1117C45.9922 24.4007 46.3487 28.02 45.6541 31.5116C44.9596 35.0033 43.2453 38.2106 40.7279 40.7279C38.2106 43.2453 35.0033 44.9596 31.5116 45.6541C28.02 46.3487 24.4007 45.9922 21.1117 44.6298C17.8226 43.2674 15.0114 40.9604 13.0335 38.0003C11.0557 35.0402 10 31.56 10 28H19C19 29.78 19.5279 31.5201 20.5168 33.0001C21.5057 34.4802 22.9113 35.6337 24.5559 36.3149C26.2004 36.9961 28.01 37.1743 29.7558 36.827C31.5016 36.4798 33.1052 35.6226 34.364 34.364C35.6226 33.1052 36.4798 31.5016 36.827 29.7558C37.1743 28.01 36.9961 26.2004 36.3149 24.5559C35.6337 22.9113 34.4802 21.5057 33.0001 20.5168Z" fill="#007DFC"/>
<path fill-rule="evenodd" clip-rule="evenodd" d="M19 10C19 11.1819 18.7672 12.3522 18.3149 13.4442C17.8626 14.5361 17.1997 15.5282 16.364 16.364C15.5282 17.1997 14.5361 17.8626 13.4442 18.3149C12.3522 18.7672 11.1819 19 10 19L10 28C12.3638 28 14.7044 27.5344 16.8883 26.6298C19.0722 25.7253 21.0565 24.3994 22.7279 22.7279C24.3994 21.0565 25.7252 19.0722 26.6298 16.8883C27.5344 14.7044 28 12.3638 28 10L19 10Z" fill="#007DFC"/>
</g>
<defs>
<clipPath id="clip0_16955_3534">
<rect width="36" height="36" fill="white" transform="translate(10 10)"/>
</clipPath>
</defs>
</svg>
