<svg width="53" height="33" viewBox="0 0 53 33" fill="none" xmlns="http://www.w3.org/2000/svg">
<g clip-path="url(#clip0_12944_1338)">
<path d="M1.4553 18.0529C1.70288 16.7062 1.61828 15.9363 1.95468 15.6023C3.20198 14.3535 4.41878 12.991 5.94307 12.0949C9.94828 9.55842 14.4218 8.54265 19.0935 8.26638C27.055 7.77926 34.6679 9.39747 42.1689 11.9602C42.9721 12.2328 43.76 12.4484 44.6199 12.7058C44.6767 12.6906 44.7749 12.6033 44.9148 12.4439C44.2388 11.2837 43.5477 10.0666 42.9285 8.89119C42.6321 8.23899 42.4187 7.4426 42.4628 6.69914C42.4697 6.27053 42.9417 5.53438 43.3391 5.42791C43.85 5.29101 44.5811 5.52188 45.1267 5.74151C45.4867 5.94987 45.6806 6.44663 45.9161 6.87129C47.6821 10.0562 49.5617 13.2107 51.2862 16.4677C52.76 19.2431 52.0541 20.4687 49.1132 21.0738C46.0589 21.7093 43.035 22.4586 40.0527 23.1358C39.1292 23.3223 38.1184 23.4102 37.0661 23.5702C37.5045 20.8921 37.5045 20.8921 46.4721 17.5747C41.5382 15.0557 36.5838 13.8226 31.5615 12.7905C26.5393 11.7584 21.4881 11.5267 16.3361 12.0537C11.0137 12.6262 6.44763 14.8861 1.4553 18.0529Z" fill="#120A0B"/>
</g>
<defs>
<clipPath id="clip0_12944_1338">
<rect width="20.897" height="48.7596" fill="white" transform="translate(47.0977) rotate(75)"/>
</clipPath>
</defs>
</svg>
