<svg width="67" height="13" viewBox="0 0 67 13" fill="none" xmlns="http://www.w3.org/2000/svg">
<path d="M59.6283 8.62746C54.9739 9.18923 50.6383 9.68857 46.3026 10.2503C45.9838 10.3128 45.7288 10.6873 45.0274 11.249C47.0677 11.4987 48.6617 11.8108 50.2557 11.8732C54.4638 11.9981 58.6082 11.9981 62.8163 11.9981C63.3264 11.9981 63.8365 12.0605 64.3465 11.9356C66.0043 11.6236 66.5781 10.5624 65.6855 9.12681C65.2392 8.4402 64.7291 7.81601 64.1553 7.25424C61.9874 5.13201 59.7559 3.07219 57.5243 1.01237C57.1417 0.637863 56.5679 0.450603 55.8028 0.0136719C55.6753 3.19703 58.927 4.07089 59.6283 6.56763C59.0545 6.4428 58.5444 6.38038 58.0981 6.25554C40.883 1.63656 23.7317 2.13591 6.64417 6.63006C4.8589 7.06699 3.13739 7.75359 1.41589 8.37777C0.523254 8.68987 -0.241859 9.37648 0.268211 10.4376C0.714531 11.4987 1.60716 11.4987 2.62732 11.0618C14.0403 6.06829 26.1546 5.50652 38.3964 5.69378C44.7724 5.7562 51.0208 6.4428 57.2055 7.87843C57.9706 8.06569 58.7357 8.31537 59.6283 8.62746Z" fill="white"/>
</svg>
