<svg width="66" height="12" viewBox="0 0 66 12" fill="none" xmlns="http://www.w3.org/2000/svg">
<g clip-path="url(#clip0_10773_624)">
<path d="M59.5239 8.61379C54.8694 9.17556 50.5338 9.67489 46.1981 10.2367C45.8793 10.2991 45.6243 10.6736 44.9229 11.2354C46.9632 11.485 48.5572 11.7971 50.1512 11.8596C54.3593 11.9844 58.5037 11.9844 62.7118 11.9844C63.2219 11.9844 63.732 12.0468 64.2421 11.922C65.8998 11.6099 66.4736 10.5488 65.581 9.11313C65.1347 8.42653 64.6246 7.80234 64.0508 7.24057C61.883 5.11834 59.6514 3.05852 57.4198 0.998703C57.0372 0.624191 56.4634 0.436931 55.6983 0C55.5708 3.18335 58.8225 4.05722 59.5239 6.55396C58.95 6.42913 58.4399 6.36671 57.9936 6.24187C40.7786 1.62289 23.6272 2.12224 6.53968 6.61639C4.75441 7.05332 3.0329 7.73991 1.31139 8.3641C0.418762 8.67619 -0.346352 9.36281 0.163719 10.4239C0.610039 11.485 1.50267 11.485 2.52282 11.0481C13.9358 6.05462 26.0501 5.49285 38.2919 5.6801C44.6679 5.74252 50.9163 6.42913 57.101 7.86476C57.8661 8.05202 58.6312 8.3017 59.5239 8.61379Z" fill="#120A0B"/>
</g>
<defs>
<clipPath id="clip0_10773_624">
<rect width="66" height="12" fill="white" transform="matrix(-1 0 0 1 66 0)"/>
</clipPath>
</defs>
</svg>
