<svg width="80" height="32" viewBox="0 0 80 32" fill="none" xmlns="http://www.w3.org/2000/svg">
<g clip-path="url(#clip0_10745_1432)">
<path d="M78.8464 22.4949C78.0773 21.6354 77.1544 20.9322 76.4622 19.9945C70.5403 11.6341 62.0804 7.49288 52.6975 5.22696C49.4674 4.4456 45.7758 4.52374 42.4687 5.22696C33.009 7.10221 24.3953 11.0871 16.9352 17.3379C14.7818 19.135 12.936 21.401 11.3978 23.9794C12.2438 23.6669 13.1667 23.3544 14.0127 22.9637C16.4737 21.8698 18.9348 20.6977 21.4728 19.7601C22.5495 19.3694 23.8569 19.3694 25.0875 19.4476C25.5489 19.4476 26.2411 20.1508 26.318 20.6196C26.3949 21.0884 25.9335 21.9479 25.5489 22.026C19.0117 24.0576 13.3205 27.9643 7.39856 31.3242C5.32204 32.4962 4.0146 32.1836 3.09169 30.074C0.861351 24.8389 -0.138458 19.2913 0.015358 13.5874C0.015358 13.4312 0.32299 13.1968 0.784439 12.7279C5.32203 14.4469 3.93768 19.4476 6.16802 23.4325C6.70638 22.4949 7.09093 21.7135 7.55238 21.0884C17.2428 8.97745 30.0865 2.57035 45.0067 0.226295C47.2371 -0.164379 49.6981 -0.00811005 52.0054 0.382566C60.4653 1.86714 68.0023 5.46136 74.2319 11.4778C76.2315 13.4312 77.6928 16.0096 79.154 18.4318C79.7693 19.3694 79.7693 20.6977 80 21.7916C79.6155 22.026 79.2309 22.2605 78.8464 22.4949Z" fill="#120A0B"/>
</g>
<defs>
<clipPath id="clip0_10745_1432">
<rect width="80" height="32" fill="white" transform="matrix(-1 0 0 -1 80 32)"/>
</clipPath>
</defs>
</svg>
