<svg width="23" height="23" viewBox="0 0 23 23" fill="none" xmlns="http://www.w3.org/2000/svg">
<g filter="url(#filter0_b_10745_1428)">
<path d="M3.59033 9.67448C2.59235 6.72105 2.09336 5.24434 2.44069 4.26521C2.74291 3.41329 3.41315 2.74305 4.26507 2.44084C5.2442 2.0935 6.72091 2.59249 9.67433 3.59047L15.3588 5.51131C17.7855 6.33128 18.9988 6.74127 19.5588 7.49997C20.0478 8.16252 20.243 8.99696 20.0985 9.80768C19.9331 10.736 19.0275 11.6416 17.2164 13.4528L13.4527 17.2165C11.6415 19.0277 10.7359 19.9333 9.80754 20.0987C8.99682 20.2431 8.16238 20.0479 7.49983 19.5589C6.74113 18.9989 6.33114 17.7856 5.51117 15.359L3.59033 9.67448Z" fill="#120A0B"/>
<path d="M1.49824 3.93088C1.22295 4.70691 1.32302 5.56229 1.5385 6.46232C1.75522 7.36751 2.14138 8.51029 2.62608 9.94467L2.64296 9.99461L4.5638 15.6791L4.57998 15.727C4.97622 16.8997 5.29578 17.8454 5.61421 18.564C5.93648 19.2913 6.31549 19.9276 6.90598 20.3635C7.78938 21.0155 8.90197 21.2757 9.98292 21.0832C10.7055 20.9544 11.3274 20.5523 11.9388 20.0434C12.5429 19.5405 13.2488 18.8346 14.1241 17.9593L14.1598 17.9236L17.9235 14.1599L17.9592 14.1242C18.8345 13.249 19.5404 12.5431 20.0432 11.9389C20.5521 11.3275 20.9543 10.7056 21.083 9.98307C21.2756 8.90211 21.0154 7.78952 20.3633 6.90612C19.9275 6.31563 19.2912 5.93662 18.5639 5.61435C17.8453 5.29592 16.8995 4.97636 15.7268 4.58011L15.679 4.56394L9.99446 2.6431L9.94449 2.62621C8.51012 2.14152 7.36736 1.75536 6.46218 1.53864C5.56215 1.32316 4.70676 1.22309 3.93074 1.49838C2.79484 1.90133 1.90119 2.79498 1.49824 3.93088Z" stroke="white" stroke-width="2"/>
</g>
<defs>
<filter id="filter0_b_10745_1428" x="-31.6689" y="-31.6689" width="85.8145" height="85.8145" filterUnits="userSpaceOnUse" color-interpolation-filters="sRGB">
<feFlood flood-opacity="0" result="BackgroundImageFix"/>
<feGaussianBlur in="BackgroundImageFix" stdDeviation="16"/>
<feComposite in2="SourceAlpha" operator="in" result="effect1_backgroundBlur_10745_1428"/>
<feBlend mode="normal" in="SourceGraphic" in2="effect1_backgroundBlur_10745_1428" result="shape"/>
</filter>
</defs>
</svg>
