<svg width="1200" height="792" viewBox="0 0 1200 792" fill="none" xmlns="http://www.w3.org/2000/svg">
<g opacity="0.1" clip-path="url(#clip0_10807_1755)">
<mask id="mask0_10807_1755" style="mask-type:alpha" maskUnits="userSpaceOnUse" x="-120" y="0" width="1440" height="1440">
<rect width="1440" height="1440" transform="translate(-120)" fill="url(#paint0_radial_10807_1755)"/>
</mask>
<g mask="url(#mask0_10807_1755)">
<line x1="0.5" x2="0.5" y2="1440" stroke="#120A0B"/>
<line x1="60.5" x2="60.5" y2="1440" stroke="#120A0B"/>
<line x1="120.5" x2="120.5" y2="1440" stroke="#120A0B"/>
<line x1="180.5" x2="180.5" y2="1440" stroke="#120A0B"/>
<line x1="240.5" x2="240.5" y2="1440" stroke="#120A0B"/>
<line x1="300.5" x2="300.5" y2="1440" stroke="#120A0B"/>
<line x1="360.5" x2="360.5" y2="1440" stroke="#120A0B"/>
<line x1="420.5" x2="420.5" y2="1440" stroke="#120A0B"/>
<line x1="480.5" x2="480.5" y2="1440" stroke="#120A0B"/>
<line x1="540.5" x2="540.5" y2="1440" stroke="#120A0B"/>
<line x1="600.5" x2="600.5" y2="1440" stroke="#120A0B"/>
<line x1="660.5" x2="660.5" y2="1440" stroke="#120A0B"/>
<line x1="720.5" x2="720.5" y2="1440" stroke="#120A0B"/>
<line x1="780.5" x2="780.5" y2="1440" stroke="#120A0B"/>
<line x1="840.5" x2="840.5" y2="1440" stroke="#120A0B"/>
<line x1="900.5" x2="900.5" y2="1440" stroke="#120A0B"/>
<line x1="960.5" x2="960.5" y2="1440" stroke="#120A0B"/>
<line x1="1020.5" x2="1020.5" y2="1440" stroke="#120A0B"/>
<line x1="1080.5" x2="1080.5" y2="1440" stroke="#120A0B"/>
<line x1="1140.5" x2="1140.5" y2="1440" stroke="#120A0B"/>
<line x1="-120" y1="59.5" x2="1320" y2="59.5" stroke="#120A0B"/>
<line x1="-120" y1="119.5" x2="1320" y2="119.5" stroke="#120A0B"/>
<line x1="-120" y1="179.5" x2="1320" y2="179.5" stroke="#120A0B"/>
<line x1="-120" y1="239.5" x2="1320" y2="239.5" stroke="#120A0B"/>
<line x1="-120" y1="299.5" x2="1320" y2="299.5" stroke="#120A0B"/>
<line x1="-120" y1="359.5" x2="1320" y2="359.5" stroke="#120A0B"/>
<line x1="-120" y1="419.5" x2="1320" y2="419.5" stroke="#120A0B"/>
<line x1="-120" y1="479.5" x2="1320" y2="479.5" stroke="#120A0B"/>
<line x1="-120" y1="539.5" x2="1320" y2="539.5" stroke="#120A0B"/>
<line x1="-120" y1="599.5" x2="1320" y2="599.5" stroke="#120A0B"/>
<line x1="-120" y1="659.5" x2="1320" y2="659.5" stroke="#120A0B"/>
<line x1="-120" y1="719.5" x2="1320" y2="719.5" stroke="#120A0B"/>
<line x1="-120" y1="779.5" x2="1320" y2="779.5" stroke="#120A0B"/>
</g>
</g>
<defs>
<radialGradient id="paint0_radial_10807_1755" cx="0" cy="0" r="1" gradientUnits="userSpaceOnUse" gradientTransform="translate(720 -0.000139534) rotate(90) scale(1170.5 689.488)">
<stop stop-color="white"/>
<stop offset="0.806" stop-color="white" stop-opacity="0"/>
</radialGradient>
<clipPath id="clip0_10807_1755">
<rect width="1440" height="1430" fill="white" transform="translate(-120)"/>
</clipPath>
</defs>
</svg>
