<svg width="176" height="32" viewBox="0 0 176 32" fill="none" xmlns="http://www.w3.org/2000/svg">
<path fill-rule="evenodd" clip-rule="evenodd" d="M33 32C41.8366 32 49 24.8366 49 16C49 7.16344 41.8366 0 33 0C24.1634 0 17 7.16344 17 16C17 24.8366 24.1634 32 33 32ZM36.1111 28.4444C41.2658 28.4444 45.4444 24.2658 45.4444 19.1111C45.4444 13.9565 41.2658 9.77778 36.1111 9.77778C30.9565 9.77778 26.7778 13.9565 26.7778 19.1111C26.7778 24.2658 30.9565 28.4444 36.1111 28.4444Z" fill="#F8F4F1"/>
<path d="M64.887 7.248C66.647 7.248 68.191 7.592 69.519 8.28C70.863 8.968 71.895 9.952 72.615 11.232C73.351 12.496 73.719 13.968 73.719 15.648C73.719 17.328 73.351 18.8 72.615 20.064C71.895 21.312 70.863 22.28 69.519 22.968C68.191 23.656 66.647 24 64.887 24H59.031V7.248H64.887ZM64.767 21.144C66.527 21.144 67.887 20.664 68.847 19.704C69.807 18.744 70.287 17.392 70.287 15.648C70.287 13.904 69.807 12.544 68.847 11.568C67.887 10.576 66.527 10.08 64.767 10.08H62.391V21.144H64.767ZM77.9381 9.12C77.3461 9.12 76.8501 8.936 76.4501 8.568C76.0661 8.184 75.8741 7.712 75.8741 7.152C75.8741 6.592 76.0661 6.128 76.4501 5.76C76.8501 5.376 77.3461 5.184 77.9381 5.184C78.5301 5.184 79.0181 5.376 79.4021 5.76C79.8021 6.128 80.0021 6.592 80.0021 7.152C80.0021 7.712 79.8021 8.184 79.4021 8.568C79.0181 8.936 78.5301 9.12 77.9381 9.12ZM79.5941 10.704V24H76.2341V10.704H79.5941ZM88.1218 10.488C89.1138 10.488 89.9858 10.688 90.7378 11.088C91.4898 11.472 92.0818 11.976 92.5138 12.6V10.704H95.8978V24.096C95.8978 25.328 95.6498 26.424 95.1538 27.384C94.6578 28.36 93.9138 29.128 92.9218 29.688C91.9298 30.264 90.7298 30.552 89.3218 30.552C87.4338 30.552 85.8818 30.112 84.6658 29.232C83.4658 28.352 82.7858 27.152 82.6258 25.632H85.9618C86.1378 26.24 86.5138 26.72 87.0898 27.072C87.6818 27.44 88.3938 27.624 89.2258 27.624C90.2018 27.624 90.9938 27.328 91.6018 26.736C92.2098 26.16 92.5138 25.28 92.5138 24.096V22.032C92.0818 22.656 91.4818 23.176 90.7138 23.592C89.9618 24.008 89.0978 24.216 88.1218 24.216C87.0018 24.216 85.9778 23.928 85.0498 23.352C84.1218 22.776 83.3858 21.968 82.8418 20.928C82.3138 19.872 82.0498 18.664 82.0498 17.304C82.0498 15.96 82.3138 14.768 82.8418 13.728C83.3858 12.688 84.1138 11.888 85.0258 11.328C85.9538 10.768 86.9858 10.488 88.1218 10.488ZM92.5138 17.352C92.5138 16.536 92.3538 15.84 92.0338 15.264C91.7138 14.672 91.2818 14.224 90.7378 13.92C90.1938 13.6 89.6098 13.44 88.9858 13.44C88.3618 13.44 87.7858 13.592 87.2578 13.896C86.7298 14.2 86.2978 14.648 85.9618 15.24C85.6418 15.816 85.4818 16.504 85.4818 17.304C85.4818 18.104 85.6418 18.808 85.9618 19.416C86.2978 20.008 86.7298 20.464 87.2578 20.784C87.8018 21.104 88.3778 21.264 88.9858 21.264C89.6098 21.264 90.1938 21.112 90.7378 20.808C91.2818 20.488 91.7138 20.04 92.0338 19.464C92.3538 18.872 92.5138 18.168 92.5138 17.352ZM100.883 9.12C100.291 9.12 99.7954 8.936 99.3954 8.568C99.0114 8.184 98.8194 7.712 98.8194 7.152C98.8194 6.592 99.0114 6.128 99.3954 5.76C99.7954 5.376 100.291 5.184 100.883 5.184C101.475 5.184 101.963 5.376 102.347 5.76C102.747 6.128 102.947 6.592 102.947 7.152C102.947 7.712 102.747 8.184 102.347 8.568C101.963 8.936 101.475 9.12 100.883 9.12ZM102.539 10.704V24H99.1794V10.704H102.539ZM109.771 13.464V19.896C109.771 20.344 109.875 20.672 110.083 20.88C110.307 21.072 110.675 21.168 111.187 21.168H112.747V24H110.635C107.803 24 106.387 22.624 106.387 19.872V13.464H104.803V10.704H106.387V7.416H109.771V10.704H112.747V13.464H109.771ZM127.524 17.064C127.524 17.544 127.492 17.976 127.428 18.36H117.708C117.788 19.32 118.124 20.072 118.716 20.616C119.308 21.16 120.036 21.432 120.9 21.432C122.148 21.432 123.036 20.896 123.564 19.824H127.188C126.804 21.104 126.068 22.16 124.98 22.992C123.892 23.808 122.556 24.216 120.972 24.216C119.692 24.216 118.54 23.936 117.516 23.376C116.508 22.8 115.716 21.992 115.14 20.952C114.58 19.912 114.3 18.712 114.3 17.352C114.3 15.976 114.58 14.768 115.14 13.728C115.7 12.688 116.484 11.888 117.492 11.328C118.5 10.768 119.66 10.488 120.972 10.488C122.236 10.488 123.364 10.76 124.356 11.304C125.364 11.848 126.14 12.624 126.684 13.632C127.244 14.624 127.524 15.768 127.524 17.064ZM124.044 16.104C124.028 15.24 123.716 14.552 123.108 14.04C122.5 13.512 121.756 13.248 120.876 13.248C120.044 13.248 119.34 13.504 118.764 14.016C118.204 14.512 117.86 15.208 117.732 16.104H124.044ZM129.112 17.352C129.112 15.976 129.392 14.776 129.952 13.752C130.512 12.712 131.288 11.912 132.28 11.352C133.272 10.776 134.408 10.488 135.688 10.488C137.336 10.488 138.696 10.904 139.768 11.736C140.856 12.552 141.584 13.704 141.952 15.192H138.328C138.136 14.616 137.808 14.168 137.344 13.848C136.896 13.512 136.336 13.344 135.664 13.344C134.704 13.344 133.944 13.696 133.384 14.4C132.824 15.088 132.544 16.072 132.544 17.352C132.544 18.616 132.824 19.6 133.384 20.304C133.944 20.992 134.704 21.336 135.664 21.336C137.024 21.336 137.912 20.728 138.328 19.512H141.952C141.584 20.952 140.856 22.096 139.768 22.944C138.68 23.792 137.32 24.216 135.688 24.216C134.408 24.216 133.272 23.936 132.28 23.376C131.288 22.8 130.512 22 129.952 20.976C129.392 19.936 129.112 18.728 129.112 17.352ZM151.902 10.512C152.91 10.512 153.806 10.736 154.59 11.184C155.374 11.616 155.982 12.264 156.414 13.128C156.862 13.976 157.086 15 157.086 16.2V24H153.726V16.656C153.726 15.6 153.462 14.792 152.934 14.232C152.406 13.656 151.686 13.368 150.774 13.368C149.846 13.368 149.11 13.656 148.566 14.232C148.038 14.792 147.774 15.6 147.774 16.656V24H144.414V6.24H147.774V12.36C148.206 11.784 148.782 11.336 149.502 11.016C150.222 10.68 151.022 10.512 151.902 10.512Z" fill="#F8F4F1"/>
</svg>
