<svg width="176" height="32" viewBox="0 0 176 32" fill="none" xmlns="http://www.w3.org/2000/svg">
<path fill-rule="evenodd" clip-rule="evenodd" d="M37.8966 0H12.4824V25.4141H23.518V11.0355H37.8966V0Z" fill="#F8F4F1"/>
<rect x="27.041" y="14.5225" width="17.4771" height="17.4771" fill="#F8F4F1"/>
<path d="M53.7656 7.224H60.8216C62.7256 7.224 64.2456 7.728 65.3816 8.736C66.5176 9.728 67.0856 11.112 67.0856 12.888C67.0856 14.712 66.5176 16.112 65.3816 17.088C64.2616 18.064 62.7416 18.552 60.8216 18.552H57.4136V24H53.7656V7.224ZM60.2936 15.504C62.3576 15.504 63.3896 14.632 63.3896 12.888C63.3896 11.912 63.1096 11.232 62.5496 10.848C62.0056 10.464 61.2536 10.272 60.2936 10.272H57.4136V15.504H60.2936ZM70.7576 10.704C70.1976 10.704 69.7256 10.52 69.3416 10.152C68.9576 9.784 68.7656 9.32 68.7656 8.76C68.7656 8.216 68.9576 7.76 69.3416 7.392C69.7256 7.008 70.1976 6.816 70.7576 6.816C71.3176 6.816 71.7896 7.008 72.1736 7.392C72.5576 7.76 72.7496 8.216 72.7496 8.76C72.7496 9.32 72.5576 9.784 72.1736 10.152C71.7896 10.52 71.3176 10.704 70.7576 10.704ZM68.9336 12.48H72.5816V24H68.9336V12.48ZM79.6983 18.048L75.0903 12.48H79.1463L81.7143 15.6L84.3063 12.48H88.3623L83.7303 18.048L88.6743 24H84.6663L81.7143 20.472L78.7863 24H74.7543L79.6983 18.048ZM97.3271 24.36C95.1191 24.36 93.3831 23.832 92.1191 22.776C90.8551 21.704 90.2231 20.208 90.2231 18.288C90.2231 16.384 90.7831 14.88 91.9031 13.776C93.0391 12.672 94.6551 12.12 96.7511 12.12C98.1271 12.12 99.2951 12.376 100.255 12.888C101.215 13.4 101.943 14.112 102.439 15.024C102.935 15.92 103.183 16.936 103.183 18.072V19.536H93.6791C93.9351 21.008 95.3111 21.744 97.8071 21.744C98.5431 21.744 99.3031 21.68 100.087 21.552C100.871 21.424 101.551 21.248 102.127 21.024V23.568C101.567 23.808 100.847 24 99.9671 24.144C99.0871 24.288 98.2071 24.36 97.3271 24.36ZM99.7511 17.184C99.7031 16.416 99.4151 15.824 98.8871 15.408C98.3591 14.976 97.6311 14.76 96.7031 14.76C95.7911 14.76 95.0711 14.976 94.5431 15.408C94.0151 15.84 93.7271 16.432 93.6791 17.184H99.7511ZM105.187 6.264H108.811V24H105.187V6.264ZM111.328 12.48H114.832V13.752C116 12.664 117.44 12.12 119.152 12.12C120.352 12.12 121.408 12.376 122.32 12.888C123.248 13.384 123.968 14.096 124.48 15.024C124.992 15.936 125.248 17 125.248 18.216C125.248 19.416 124.992 20.48 124.48 21.408C123.968 22.336 123.248 23.064 122.32 23.592C121.408 24.104 120.352 24.36 119.152 24.36C118.336 24.36 117.56 24.24 116.824 24C116.088 23.76 115.464 23.416 114.952 22.968V29.256H111.328V12.48ZM118.24 21.528C119.216 21.528 120.008 21.224 120.616 20.616C121.24 20.008 121.552 19.208 121.552 18.216C121.552 17.224 121.24 16.432 120.616 15.84C120.008 15.248 119.216 14.952 118.24 14.952C117.488 14.952 116.816 15.152 116.224 15.552C115.632 15.952 115.208 16.48 114.952 17.136V19.32C115.192 19.992 115.608 20.528 116.2 20.928C116.808 21.328 117.488 21.528 118.24 21.528ZM131.585 24.36C130.177 24.36 129.025 24.008 128.129 23.304C127.249 22.584 126.809 21.608 126.809 20.376C126.809 19.096 127.233 18.104 128.081 17.4C128.929 16.68 130.129 16.32 131.681 16.32C132.369 16.32 133.025 16.392 133.649 16.536C134.273 16.68 134.825 16.88 135.305 17.136V16.848C135.305 16.128 135.049 15.6 134.537 15.264C134.025 14.928 133.241 14.76 132.185 14.76C130.777 14.76 129.481 15.024 128.297 15.552V12.912C128.809 12.688 129.473 12.504 130.289 12.36C131.105 12.2 131.921 12.12 132.737 12.12C134.817 12.12 136.369 12.552 137.393 13.416C138.417 14.264 138.929 15.456 138.929 16.992V24H135.521V22.944C134.545 23.888 133.233 24.36 131.585 24.36ZM132.569 21.96C133.161 21.96 133.697 21.848 134.177 21.624C134.657 21.4 135.033 21.088 135.305 20.688V19.536C134.489 18.992 133.593 18.72 132.617 18.72C131.945 18.72 131.425 18.864 131.057 19.152C130.705 19.424 130.529 19.832 130.529 20.376C130.529 20.888 130.705 21.28 131.057 21.552C131.409 21.824 131.913 21.96 132.569 21.96ZM145.543 24.36C144.199 24.36 143.175 23.992 142.471 23.256C141.783 22.504 141.439 21.464 141.439 20.136V15.096H139.759V12.48H141.439V9.024H145.063V12.48H147.775V15.096H145.063V19.656C145.063 20.328 145.191 20.816 145.447 21.12C145.703 21.408 146.159 21.552 146.815 21.552C147.343 21.552 147.847 21.424 148.327 21.168V23.88C147.591 24.2 146.663 24.36 145.543 24.36ZM150 6.264H153.624V13.8C154.168 13.24 154.784 12.824 155.472 12.552C156.16 12.264 156.896 12.12 157.68 12.12C159.248 12.12 160.416 12.544 161.184 13.392C161.968 14.224 162.36 15.352 162.36 16.776V24H158.736V17.184C158.736 15.696 158.048 14.952 156.672 14.952C156.064 14.952 155.496 15.104 154.968 15.408C154.44 15.696 153.992 16.128 153.624 16.704V24H150V6.264Z" fill="#F8F4F1"/>
</svg>
