<svg width="176" height="32" viewBox="0 0 176 32" fill="none" xmlns="http://www.w3.org/2000/svg">
<path d="M25.481 0.273233C26.112 -0.0910777 26.8894 -0.0910776 27.5205 0.273233L39.6107 7.25351C40.2417 7.61782 40.6304 8.2911 40.6304 9.01972V16.8118L27.8254 9.43278C27.2155 9.08129 26.4361 9.29081 26.0846 9.90075C25.7331 10.5107 25.9426 11.2901 26.5526 11.6416L40.6304 19.7541V22.9803C40.6304 23.7089 40.2417 24.3822 39.6107 24.7465L27.5205 31.7268C26.8894 32.0911 26.112 32.0911 25.481 31.7268L13.3908 24.7465C12.7598 24.3822 12.3711 23.7089 12.3711 22.9803V15.2119L25.0914 22.5663C25.7008 22.9187 26.4805 22.7103 26.8329 22.1008C27.1852 21.4914 26.9768 20.7117 26.3674 20.3593L12.3711 12.2672V9.01972C12.3711 8.2911 12.7598 7.61782 13.3908 7.25351L25.481 0.273233Z" fill="#F8F4F1"/>
<path d="M56.67 24.264C55.998 24.264 55.31 24.208 54.606 24.096C53.918 24 53.254 23.856 52.614 23.664C51.99 23.472 51.43 23.232 50.934 22.944C50.582 22.752 50.334 22.504 50.19 22.2C50.046 21.88 49.99 21.56 50.022 21.24C50.07 20.92 50.19 20.64 50.382 20.4C50.59 20.144 50.846 19.984 51.15 19.92C51.47 19.84 51.822 19.896 52.206 20.088C52.862 20.456 53.574 20.728 54.342 20.904C55.126 21.08 55.902 21.168 56.67 21.168C57.838 21.168 58.67 20.992 59.166 20.64C59.662 20.272 59.91 19.816 59.91 19.272C59.91 18.808 59.734 18.44 59.382 18.168C59.03 17.896 58.414 17.664 57.534 17.472L54.822 16.896C53.286 16.576 52.142 16.032 51.39 15.264C50.654 14.48 50.286 13.456 50.286 12.192C50.286 11.392 50.454 10.664 50.79 10.008C51.126 9.352 51.598 8.784 52.206 8.304C52.814 7.824 53.534 7.456 54.366 7.2C55.214 6.944 56.142 6.816 57.15 6.816C58.046 6.816 58.926 6.928 59.79 7.152C60.654 7.36 61.414 7.672 62.07 8.088C62.39 8.28 62.606 8.528 62.718 8.832C62.846 9.12 62.886 9.416 62.838 9.72C62.806 10.008 62.686 10.264 62.478 10.488C62.286 10.712 62.038 10.856 61.734 10.92C61.43 10.984 61.062 10.912 60.63 10.704C60.102 10.432 59.542 10.232 58.95 10.104C58.358 9.976 57.75 9.912 57.126 9.912C56.454 9.912 55.878 10 55.398 10.176C54.934 10.352 54.574 10.6 54.318 10.92C54.078 11.24 53.958 11.608 53.958 12.024C53.958 12.488 54.126 12.864 54.462 13.152C54.798 13.44 55.382 13.672 56.214 13.848L58.926 14.424C60.494 14.76 61.662 15.304 62.43 16.056C63.198 16.792 63.582 17.768 63.582 18.984C63.582 19.784 63.422 20.512 63.102 21.168C62.782 21.808 62.318 22.36 61.71 22.824C61.102 23.288 60.374 23.648 59.526 23.904C58.678 24.144 57.726 24.264 56.67 24.264ZM67.509 28.536C66.917 28.536 66.461 28.376 66.141 28.056C65.837 27.752 65.685 27.296 65.685 26.688V13.848C65.685 13.256 65.837 12.808 66.141 12.504C66.461 12.184 66.901 12.024 67.461 12.024C68.053 12.024 68.501 12.184 68.805 12.504C69.109 12.808 69.261 13.256 69.261 13.848V15.48L68.997 14.544C69.237 13.776 69.717 13.16 70.437 12.696C71.173 12.216 72.013 11.976 72.957 11.976C73.981 11.976 74.877 12.224 75.645 12.72C76.429 13.216 77.037 13.92 77.469 14.832C77.901 15.744 78.117 16.832 78.117 18.096C78.117 19.36 77.901 20.456 77.469 21.384C77.037 22.312 76.437 23.024 75.669 23.52C74.901 24.016 73.997 24.264 72.957 24.264C72.029 24.264 71.205 24.04 70.485 23.592C69.765 23.128 69.277 22.528 69.021 21.792H69.309V26.688C69.309 27.296 69.149 27.752 68.829 28.056C68.525 28.376 68.085 28.536 67.509 28.536ZM71.877 21.552C72.389 21.552 72.837 21.424 73.221 21.168C73.621 20.912 73.925 20.536 74.133 20.04C74.357 19.528 74.469 18.88 74.469 18.096C74.469 16.928 74.229 16.072 73.749 15.528C73.269 14.968 72.645 14.688 71.877 14.688C71.365 14.688 70.909 14.808 70.509 15.048C70.125 15.288 69.821 15.664 69.597 16.176C69.373 16.672 69.261 17.312 69.261 18.096C69.261 19.264 69.501 20.136 69.981 20.712C70.461 21.272 71.093 21.552 71.877 21.552ZM84.3174 24.264C83.4534 24.264 82.6774 24.096 81.9894 23.76C81.3014 23.424 80.7654 22.968 80.3814 22.392C79.9974 21.816 79.8054 21.168 79.8054 20.448C79.8054 19.584 80.0294 18.904 80.4774 18.408C80.9254 17.896 81.6534 17.536 82.6614 17.328C83.6694 17.104 85.0054 16.992 86.6694 16.992H87.9414V18.864H86.6934C85.8774 18.864 85.2134 18.912 84.7014 19.008C84.2054 19.088 83.8454 19.232 83.6214 19.44C83.4134 19.648 83.3094 19.936 83.3094 20.304C83.3094 20.752 83.4614 21.12 83.7654 21.408C84.0854 21.696 84.5414 21.84 85.1334 21.84C85.5974 21.84 86.0054 21.736 86.3574 21.528C86.7254 21.304 87.0134 21.008 87.2214 20.64C87.4294 20.256 87.5334 19.824 87.5334 19.344V16.584C87.5334 15.88 87.3734 15.384 87.0534 15.096C86.7334 14.792 86.1894 14.64 85.4214 14.64C84.9894 14.64 84.5174 14.696 84.0054 14.808C83.5094 14.904 82.9574 15.072 82.3494 15.312C81.9974 15.472 81.6854 15.512 81.4134 15.432C81.1414 15.336 80.9334 15.176 80.7894 14.952C80.6454 14.712 80.5734 14.456 80.5734 14.184C80.5734 13.896 80.6534 13.624 80.8134 13.368C80.9734 13.096 81.2374 12.896 81.6054 12.768C82.3574 12.464 83.0614 12.256 83.7174 12.144C84.3894 12.032 85.0054 11.976 85.5654 11.976C86.7974 11.976 87.8054 12.16 88.5894 12.528C89.3894 12.88 89.9894 13.432 90.3894 14.184C90.7894 14.92 90.9894 15.872 90.9894 17.04V22.368C90.9894 22.96 90.8454 23.416 90.5574 23.736C90.2694 24.056 89.8534 24.216 89.3094 24.216C88.7654 24.216 88.3414 24.056 88.0374 23.736C87.7494 23.416 87.6054 22.96 87.6054 22.368V21.48L87.7734 21.624C87.6774 22.168 87.4694 22.64 87.1494 23.04C86.8454 23.424 86.4534 23.728 85.9734 23.952C85.4934 24.16 84.9414 24.264 84.3174 24.264ZM95.5648 24.216C94.9568 24.216 94.4928 24.056 94.1728 23.736C93.8528 23.416 93.6928 22.96 93.6928 22.368V13.848C93.6928 13.256 93.8448 12.808 94.1488 12.504C94.4688 12.184 94.9088 12.024 95.4688 12.024C96.0448 12.024 96.4848 12.184 96.7888 12.504C97.0928 12.808 97.2448 13.256 97.2448 13.848V15.096H97.0048C97.1968 14.136 97.6208 13.392 98.2768 12.864C98.9328 12.336 99.7808 12.04 100.821 11.976C101.221 11.944 101.525 12.048 101.733 12.288C101.957 12.512 102.077 12.888 102.093 13.416C102.125 13.912 102.021 14.304 101.781 14.592C101.557 14.88 101.173 15.056 100.629 15.12L100.077 15.168C99.1648 15.248 98.4848 15.512 98.0368 15.96C97.6048 16.408 97.3888 17.056 97.3888 17.904V22.368C97.3888 22.96 97.2288 23.416 96.9088 23.736C96.6048 24.056 96.1568 24.216 95.5648 24.216ZM105.407 24.216C104.815 24.216 104.359 24.056 104.039 23.736C103.735 23.416 103.583 22.96 103.583 22.368V8.712C103.583 8.104 103.735 7.648 104.039 7.344C104.359 7.024 104.815 6.864 105.407 6.864C105.983 6.864 106.423 7.024 106.727 7.344C107.047 7.648 107.207 8.104 107.207 8.712V17.088H107.255L110.735 13.224C111.087 12.824 111.407 12.528 111.695 12.336C111.999 12.128 112.399 12.024 112.895 12.024C113.391 12.024 113.767 12.152 114.023 12.408C114.295 12.664 114.431 12.976 114.431 13.344C114.447 13.696 114.295 14.056 113.975 14.424L110.303 18.528V17.16L114.383 21.864C114.687 22.232 114.815 22.6 114.767 22.968C114.735 23.336 114.575 23.64 114.287 23.88C113.999 24.104 113.631 24.216 113.183 24.216C112.639 24.216 112.199 24.112 111.863 23.904C111.543 23.696 111.215 23.376 110.879 22.944L107.255 18.912H107.207V22.368C107.207 23.6 106.607 24.216 105.407 24.216ZM121.369 24.216C120.889 24.216 120.481 24.104 120.145 23.88C119.809 23.64 119.537 23.264 119.329 22.752L115.945 14.376C115.769 13.928 115.713 13.536 115.777 13.2C115.841 12.848 116.009 12.568 116.281 12.36C116.569 12.136 116.961 12.024 117.457 12.024C117.873 12.024 118.217 12.128 118.489 12.336C118.761 12.528 118.993 12.904 119.185 13.464L121.825 20.496H121.273L124.009 13.152C124.137 12.768 124.321 12.488 124.561 12.312C124.817 12.12 125.145 12.024 125.545 12.024C125.945 12.024 126.265 12.12 126.505 12.312C126.761 12.504 126.961 12.784 127.105 13.152L129.793 20.496H129.337L131.953 13.368C132.145 12.856 132.393 12.504 132.697 12.312C133.001 12.12 133.329 12.024 133.681 12.024C134.129 12.024 134.473 12.136 134.713 12.36C134.969 12.584 135.113 12.872 135.145 13.224C135.193 13.576 135.129 13.96 134.953 14.376L131.593 22.752C131.401 23.248 131.129 23.616 130.777 23.856C130.441 24.096 130.033 24.216 129.553 24.216C129.089 24.216 128.681 24.096 128.329 23.856C127.993 23.616 127.721 23.248 127.513 22.752L124.633 15.264H126.193L123.385 22.728C123.193 23.224 122.929 23.6 122.593 23.856C122.257 24.096 121.849 24.216 121.369 24.216ZM143.032 24.264C141.64 24.264 140.44 24.016 139.432 23.52C138.44 23.008 137.672 22.296 137.128 21.384C136.6 20.456 136.336 19.368 136.336 18.12C136.336 16.904 136.592 15.84 137.104 14.928C137.616 14 138.328 13.28 139.24 12.768C140.168 12.24 141.216 11.976 142.384 11.976C143.232 11.976 144 12.12 144.688 12.408C145.376 12.68 145.968 13.08 146.464 13.608C146.96 14.12 147.336 14.752 147.592 15.504C147.848 16.24 147.976 17.064 147.976 17.976C147.976 18.28 147.88 18.512 147.688 18.672C147.496 18.816 147.216 18.888 146.848 18.888H139.312V17.016H145.36L144.976 17.352C144.976 16.696 144.88 16.152 144.688 15.72C144.496 15.272 144.216 14.936 143.848 14.712C143.496 14.488 143.056 14.376 142.528 14.376C141.936 14.376 141.432 14.512 141.016 14.784C140.6 15.056 140.28 15.448 140.056 15.96C139.832 16.472 139.72 17.088 139.72 17.808V18C139.72 19.216 140 20.112 140.56 20.688C141.136 21.264 141.984 21.552 143.104 21.552C143.488 21.552 143.928 21.504 144.424 21.408C144.92 21.312 145.384 21.16 145.816 20.952C146.184 20.776 146.512 20.72 146.8 20.784C147.088 20.832 147.312 20.96 147.472 21.168C147.632 21.376 147.72 21.616 147.736 21.888C147.768 22.16 147.712 22.432 147.568 22.704C147.424 22.96 147.184 23.176 146.848 23.352C146.304 23.656 145.688 23.88 145 24.024C144.328 24.184 143.672 24.264 143.032 24.264ZM157.355 24.264C156.411 24.264 155.571 24.032 154.835 23.568C154.115 23.088 153.635 22.456 153.395 21.672L153.659 20.88V22.368C153.659 22.96 153.507 23.416 153.203 23.736C152.899 24.056 152.459 24.216 151.883 24.216C151.307 24.216 150.859 24.056 150.539 23.736C150.235 23.416 150.083 22.96 150.083 22.368V8.712C150.083 8.104 150.235 7.648 150.539 7.344C150.859 7.024 151.315 6.864 151.907 6.864C152.483 6.864 152.923 7.024 153.227 7.344C153.547 7.648 153.707 8.104 153.707 8.712V14.4H153.419C153.675 13.68 154.163 13.096 154.883 12.648C155.603 12.2 156.427 11.976 157.355 11.976C158.395 11.976 159.299 12.224 160.067 12.72C160.835 13.216 161.435 13.92 161.867 14.832C162.299 15.744 162.515 16.832 162.515 18.096C162.515 19.36 162.299 20.456 161.867 21.384C161.435 22.312 160.827 23.024 160.043 23.52C159.275 24.016 158.379 24.264 157.355 24.264ZM156.275 21.552C156.787 21.552 157.235 21.424 157.619 21.168C158.019 20.912 158.323 20.536 158.531 20.04C158.755 19.528 158.867 18.88 158.867 18.096C158.867 16.928 158.627 16.072 158.147 15.528C157.667 14.968 157.043 14.688 156.275 14.688C155.763 14.688 155.307 14.808 154.907 15.048C154.523 15.288 154.219 15.664 153.995 16.176C153.771 16.672 153.659 17.312 153.659 18.096C153.659 19.264 153.899 20.136 154.379 20.712C154.859 21.272 155.491 21.552 156.275 21.552Z" fill="#F8F4F1"/>
</svg>
