<svg width="176" height="32" viewBox="0 0 176 32" fill="none" xmlns="http://www.w3.org/2000/svg">
<path d="M50.7851 7.51972C49.5975 6.97212 48.2752 6.66666 46.8815 6.66666C41.7269 6.66666 37.5482 10.8453 37.5482 16C37.5482 21.1547 41.7269 25.3333 46.8815 25.3333C48.2752 25.3333 49.5975 25.0279 50.7852 24.4803C47.9569 28.9966 42.9366 32 37.2148 32C28.3783 32 21.2148 24.8366 21.2148 16C21.2148 7.16344 28.3783 0 37.2148 0C42.9366 0 47.9569 3.00341 50.7851 7.51972Z" fill="#EF4444"/>
<path d="M50.7851 16C50.7851 18.1559 49.0374 19.9036 46.8815 19.9036C44.7256 19.9036 42.9779 18.1559 42.9779 16C42.9779 13.8441 44.7256 12.0964 46.8815 12.0964C49.0374 12.0964 50.7851 13.8441 50.7851 16Z" fill="#EF4444"/>
<path d="M68.0832 24.312C66.9472 24.312 65.8792 24.088 64.8792 23.64C63.8792 23.184 62.9992 22.556 62.2392 21.756C61.4872 20.956 60.8952 20.032 60.4632 18.984C60.0392 17.928 59.8272 16.8 59.8272 15.6C59.8272 14.392 60.0392 13.264 60.4632 12.216C60.8952 11.16 61.4872 10.236 62.2392 9.444C62.9992 8.644 63.8792 8.02 64.8792 7.572C65.8792 7.116 66.9472 6.888 68.0832 6.888C69.4432 6.888 70.6952 7.204 71.8392 7.836C72.9832 8.46 73.9312 9.296 74.6832 10.344L71.7312 11.94C71.2832 11.412 70.7432 10.992 70.1112 10.68C69.4792 10.36 68.8032 10.2 68.0832 10.2C67.4032 10.2 66.7632 10.34 66.1632 10.62C65.5632 10.9 65.0352 11.288 64.5792 11.784C64.1312 12.28 63.7792 12.852 63.5232 13.5C63.2672 14.148 63.1392 14.848 63.1392 15.6C63.1392 16.344 63.2672 17.044 63.5232 17.7C63.7792 18.348 64.1312 18.92 64.5792 19.416C65.0352 19.904 65.5632 20.292 66.1632 20.58C66.7632 20.86 67.4032 21 68.0832 21C68.8112 21 69.4872 20.84 70.1112 20.52C70.7432 20.2 71.2832 19.776 71.7312 19.248L74.6832 20.856C73.9312 21.896 72.9832 22.732 71.8392 23.364C70.6952 23.996 69.4432 24.312 68.0832 24.312ZM81.5481 24.312C80.4441 24.312 79.4361 24.028 78.5241 23.46C77.6201 22.892 76.8961 22.132 76.3521 21.18C75.8161 20.22 75.5481 19.16 75.5481 18C75.5481 17.12 75.7041 16.3 76.0161 15.54C76.3281 14.772 76.7561 14.1 77.3001 13.524C77.8521 12.94 78.4921 12.484 79.2201 12.156C79.9481 11.828 80.7241 11.664 81.5481 11.664C82.6521 11.664 83.6561 11.948 84.5601 12.516C85.4721 13.084 86.1961 13.848 86.7321 14.808C87.2761 15.768 87.5481 16.832 87.5481 18C87.5481 18.872 87.3921 19.688 87.0801 20.448C86.7681 21.208 86.3361 21.88 85.7841 22.464C85.2401 23.04 84.6041 23.492 83.8761 23.82C83.1561 24.148 82.3801 24.312 81.5481 24.312ZM81.5481 21C82.0601 21 82.5201 20.864 82.9281 20.592C83.3361 20.312 83.6561 19.944 83.8881 19.488C84.1201 19.032 84.2361 18.536 84.2361 18C84.2361 17.448 84.1121 16.944 83.8641 16.488C83.6241 16.024 83.3001 15.656 82.8921 15.384C82.4841 15.112 82.0361 14.976 81.5481 14.976C81.0441 14.976 80.5881 15.116 80.1801 15.396C79.7721 15.676 79.4481 16.044 79.2081 16.5C78.9761 16.956 78.8601 17.456 78.8601 18C78.8601 18.568 78.9801 19.08 79.2201 19.536C79.4681 19.984 79.7961 20.34 80.2041 20.604C80.6121 20.868 81.0601 21 81.5481 21ZM98.2834 6H101.595V24H98.2834V22.728C97.9154 23.192 97.4594 23.572 96.9154 23.868C96.3714 24.164 95.7514 24.312 95.0554 24.312C94.1834 24.312 93.3674 24.148 92.6074 23.82C91.8474 23.492 91.1754 23.04 90.5914 22.464C90.0154 21.88 89.5634 21.208 89.2354 20.448C88.9074 19.688 88.7434 18.872 88.7434 18C88.7434 17.128 88.9074 16.312 89.2354 15.552C89.5634 14.792 90.0154 14.124 90.5914 13.548C91.1754 12.964 91.8474 12.508 92.6074 12.18C93.3674 11.852 94.1834 11.688 95.0554 11.688C95.7514 11.688 96.3714 11.836 96.9154 12.132C97.4594 12.42 97.9154 12.8 98.2834 13.272V6ZM95.1034 21.132C95.6474 21.132 96.1394 20.992 96.5794 20.712C97.0194 20.432 97.3674 20.056 97.6234 19.584C97.8794 19.104 98.0074 18.576 98.0074 18C98.0074 17.416 97.8794 16.888 97.6234 16.416C97.3674 15.944 97.0194 15.568 96.5794 15.288C96.1394 15.008 95.6474 14.868 95.1034 14.868C94.5514 14.868 94.0514 15.008 93.6034 15.288C93.1554 15.568 92.7994 15.948 92.5354 16.428C92.2714 16.9 92.1394 17.424 92.1394 18C92.1394 18.576 92.2714 19.104 92.5354 19.584C92.8074 20.056 93.1674 20.432 93.6154 20.712C94.0634 20.992 94.5594 21.132 95.1034 21.132ZM109.533 24.312C108.429 24.312 107.421 24.028 106.509 23.46C105.605 22.892 104.881 22.128 104.337 21.168C103.801 20.208 103.533 19.148 103.533 17.988C103.533 17.116 103.689 16.3 104.001 15.54C104.313 14.772 104.741 14.1 105.285 13.524C105.837 12.94 106.477 12.484 107.205 12.156C107.933 11.828 108.709 11.664 109.533 11.664C110.485 11.664 111.353 11.868 112.137 12.276C112.929 12.684 113.597 13.24 114.141 13.944C114.693 14.648 115.085 15.444 115.317 16.332C115.557 17.22 115.597 18.144 115.437 19.104H107.109C107.213 19.456 107.373 19.776 107.589 20.064C107.813 20.344 108.085 20.568 108.405 20.736C108.733 20.904 109.109 20.992 109.533 21C109.949 21.008 110.333 20.912 110.685 20.712C111.037 20.512 111.337 20.244 111.585 19.908L114.969 20.688C114.481 21.752 113.753 22.624 112.785 23.304C111.817 23.976 110.733 24.312 109.533 24.312ZM106.989 16.656H112.089C111.985 16.256 111.809 15.896 111.561 15.576C111.313 15.256 111.013 15.004 110.661 14.82C110.317 14.636 109.941 14.544 109.533 14.544C109.133 14.544 108.757 14.636 108.405 14.82C108.061 15.004 107.765 15.256 107.517 15.576C107.277 15.888 107.101 16.248 106.989 16.656ZM117.143 24V6H120.455V24H117.143ZM123.331 12H126.643V24H123.331V12ZM125.011 10.62C124.531 10.62 124.127 10.46 123.799 10.14C123.471 9.82 123.307 9.424 123.307 8.952C123.307 8.48 123.471 8.084 123.799 7.764C124.127 7.444 124.527 7.284 124.999 7.284C125.471 7.284 125.867 7.444 126.187 7.764C126.515 8.084 126.679 8.48 126.679 8.952C126.679 9.424 126.519 9.82 126.199 10.14C125.887 10.46 125.491 10.62 125.011 10.62ZM140.549 16.368V24H137.237V17.28C137.237 16.856 137.133 16.476 136.925 16.14C136.725 15.796 136.453 15.524 136.109 15.324C135.773 15.124 135.397 15.024 134.981 15.024C134.565 15.024 134.185 15.124 133.841 15.324C133.497 15.524 133.225 15.796 133.025 16.14C132.825 16.476 132.725 16.856 132.725 17.28V24H129.413L129.401 12H132.713L132.725 12.888C133.125 12.504 133.593 12.204 134.129 11.988C134.673 11.772 135.245 11.664 135.845 11.664C136.717 11.664 137.505 11.876 138.209 12.3C138.921 12.724 139.489 13.292 139.913 14.004C140.337 14.708 140.549 15.496 140.549 16.368ZM154.107 24H150.291L147.747 19.62L146.283 21.36V24H142.971V6H146.283V16.212L149.811 12H154.131L150.015 16.932L154.107 24Z" fill="#120A0B"/>
</svg>
