<svg width="134" height="32" viewBox="0 0 134 32" fill="none" xmlns="http://www.w3.org/2000/svg">
<path d="M29.7851 7.51972C28.5975 6.97212 27.2752 6.66666 25.8815 6.66666C20.7269 6.66666 16.5482 10.8453 16.5482 16C16.5482 21.1547 20.7269 25.3333 25.8815 25.3333C27.2752 25.3333 28.5975 25.0279 29.7852 24.4803C26.9569 28.9966 21.9366 32 16.2148 32C7.37829 32 0.214844 24.8366 0.214844 16C0.214844 7.16344 7.37829 0 16.2148 0C21.9366 0 26.9569 3.00341 29.7851 7.51972Z" fill="#454140"/>
<path d="M29.7851 16C29.7851 18.1559 28.0374 19.9036 25.8815 19.9036C23.7256 19.9036 21.9779 18.1559 21.9779 16C21.9779 13.8441 23.7256 12.0964 25.8815 12.0964C28.0374 12.0964 29.7851 13.8441 29.7851 16Z" fill="#454140"/>
<path d="M47.0832 24.312C45.9472 24.312 44.8792 24.088 43.8792 23.64C42.8792 23.184 41.9992 22.556 41.2392 21.756C40.4872 20.956 39.8952 20.032 39.4632 18.984C39.0392 17.928 38.8272 16.8 38.8272 15.6C38.8272 14.392 39.0392 13.264 39.4632 12.216C39.8952 11.16 40.4872 10.236 41.2392 9.444C41.9992 8.644 42.8792 8.02 43.8792 7.572C44.8792 7.116 45.9472 6.888 47.0832 6.888C48.4432 6.888 49.6952 7.204 50.8392 7.836C51.9832 8.46 52.9312 9.296 53.6832 10.344L50.7312 11.94C50.2832 11.412 49.7432 10.992 49.1112 10.68C48.4792 10.36 47.8032 10.2 47.0832 10.2C46.4032 10.2 45.7632 10.34 45.1632 10.62C44.5632 10.9 44.0352 11.288 43.5792 11.784C43.1312 12.28 42.7792 12.852 42.5232 13.5C42.2672 14.148 42.1392 14.848 42.1392 15.6C42.1392 16.344 42.2672 17.044 42.5232 17.7C42.7792 18.348 43.1312 18.92 43.5792 19.416C44.0352 19.904 44.5632 20.292 45.1632 20.58C45.7632 20.86 46.4032 21 47.0832 21C47.8112 21 48.4872 20.84 49.1112 20.52C49.7432 20.2 50.2832 19.776 50.7312 19.248L53.6832 20.856C52.9312 21.896 51.9832 22.732 50.8392 23.364C49.6952 23.996 48.4432 24.312 47.0832 24.312ZM60.5481 24.312C59.4441 24.312 58.4361 24.028 57.5241 23.46C56.6201 22.892 55.8961 22.132 55.3521 21.18C54.8161 20.22 54.5481 19.16 54.5481 18C54.5481 17.12 54.7041 16.3 55.0161 15.54C55.3281 14.772 55.7561 14.1 56.3001 13.524C56.8521 12.94 57.4921 12.484 58.2201 12.156C58.9481 11.828 59.7241 11.664 60.5481 11.664C61.6521 11.664 62.6561 11.948 63.5601 12.516C64.4721 13.084 65.1961 13.848 65.7321 14.808C66.2761 15.768 66.5481 16.832 66.5481 18C66.5481 18.872 66.3921 19.688 66.0801 20.448C65.7681 21.208 65.3361 21.88 64.7841 22.464C64.2401 23.04 63.6041 23.492 62.8761 23.82C62.1561 24.148 61.3801 24.312 60.5481 24.312ZM60.5481 21C61.0601 21 61.5201 20.864 61.9281 20.592C62.3361 20.312 62.6561 19.944 62.8881 19.488C63.1201 19.032 63.2361 18.536 63.2361 18C63.2361 17.448 63.1121 16.944 62.8641 16.488C62.6241 16.024 62.3001 15.656 61.8921 15.384C61.4841 15.112 61.0361 14.976 60.5481 14.976C60.0441 14.976 59.5881 15.116 59.1801 15.396C58.7721 15.676 58.4481 16.044 58.2081 16.5C57.9761 16.956 57.8601 17.456 57.8601 18C57.8601 18.568 57.9801 19.08 58.2201 19.536C58.4681 19.984 58.7961 20.34 59.2041 20.604C59.6121 20.868 60.0601 21 60.5481 21ZM77.2834 6H80.5954V24H77.2834V22.728C76.9154 23.192 76.4594 23.572 75.9154 23.868C75.3714 24.164 74.7514 24.312 74.0554 24.312C73.1834 24.312 72.3674 24.148 71.6074 23.82C70.8474 23.492 70.1754 23.04 69.5914 22.464C69.0154 21.88 68.5634 21.208 68.2354 20.448C67.9074 19.688 67.7434 18.872 67.7434 18C67.7434 17.128 67.9074 16.312 68.2354 15.552C68.5634 14.792 69.0154 14.124 69.5914 13.548C70.1754 12.964 70.8474 12.508 71.6074 12.18C72.3674 11.852 73.1834 11.688 74.0554 11.688C74.7514 11.688 75.3714 11.836 75.9154 12.132C76.4594 12.42 76.9154 12.8 77.2834 13.272V6ZM74.1034 21.132C74.6474 21.132 75.1394 20.992 75.5794 20.712C76.0194 20.432 76.3674 20.056 76.6234 19.584C76.8794 19.104 77.0074 18.576 77.0074 18C77.0074 17.416 76.8794 16.888 76.6234 16.416C76.3674 15.944 76.0194 15.568 75.5794 15.288C75.1394 15.008 74.6474 14.868 74.1034 14.868C73.5514 14.868 73.0514 15.008 72.6034 15.288C72.1554 15.568 71.7994 15.948 71.5354 16.428C71.2714 16.9 71.1394 17.424 71.1394 18C71.1394 18.576 71.2714 19.104 71.5354 19.584C71.8074 20.056 72.1674 20.432 72.6154 20.712C73.0634 20.992 73.5594 21.132 74.1034 21.132ZM88.5325 24.312C87.4285 24.312 86.4205 24.028 85.5085 23.46C84.6045 22.892 83.8805 22.128 83.3365 21.168C82.8005 20.208 82.5325 19.148 82.5325 17.988C82.5325 17.116 82.6885 16.3 83.0005 15.54C83.3125 14.772 83.7405 14.1 84.2845 13.524C84.8365 12.94 85.4765 12.484 86.2045 12.156C86.9325 11.828 87.7085 11.664 88.5325 11.664C89.4845 11.664 90.3525 11.868 91.1365 12.276C91.9285 12.684 92.5965 13.24 93.1405 13.944C93.6925 14.648 94.0845 15.444 94.3165 16.332C94.5565 17.22 94.5965 18.144 94.4365 19.104H86.1085C86.2125 19.456 86.3725 19.776 86.5885 20.064C86.8125 20.344 87.0845 20.568 87.4045 20.736C87.7325 20.904 88.1085 20.992 88.5325 21C88.9485 21.008 89.3325 20.912 89.6845 20.712C90.0365 20.512 90.3365 20.244 90.5845 19.908L93.9685 20.688C93.4805 21.752 92.7525 22.624 91.7845 23.304C90.8165 23.976 89.7325 24.312 88.5325 24.312ZM85.9885 16.656H91.0885C90.9845 16.256 90.8085 15.896 90.5605 15.576C90.3125 15.256 90.0125 15.004 89.6605 14.82C89.3165 14.636 88.9405 14.544 88.5325 14.544C88.1325 14.544 87.7565 14.636 87.4045 14.82C87.0605 15.004 86.7645 15.256 86.5165 15.576C86.2765 15.888 86.1005 16.248 85.9885 16.656ZM96.1431 24V6H99.4551V24H96.1431ZM102.331 12H105.643V24H102.331V12ZM104.011 10.62C103.531 10.62 103.127 10.46 102.799 10.14C102.471 9.82 102.307 9.424 102.307 8.952C102.307 8.48 102.471 8.084 102.799 7.764C103.127 7.444 103.527 7.284 103.999 7.284C104.471 7.284 104.867 7.444 105.187 7.764C105.515 8.084 105.679 8.48 105.679 8.952C105.679 9.424 105.519 9.82 105.199 10.14C104.887 10.46 104.491 10.62 104.011 10.62ZM119.549 16.368V24H116.237V17.28C116.237 16.856 116.133 16.476 115.925 16.14C115.725 15.796 115.453 15.524 115.109 15.324C114.773 15.124 114.397 15.024 113.981 15.024C113.565 15.024 113.185 15.124 112.841 15.324C112.497 15.524 112.225 15.796 112.025 16.14C111.825 16.476 111.725 16.856 111.725 17.28V24H108.413L108.401 12H111.713L111.725 12.888C112.125 12.504 112.593 12.204 113.129 11.988C113.673 11.772 114.245 11.664 114.845 11.664C115.717 11.664 116.505 11.876 117.209 12.3C117.921 12.724 118.489 13.292 118.913 14.004C119.337 14.708 119.549 15.496 119.549 16.368ZM133.107 24H129.291L126.747 19.62L125.283 21.36V24H121.971V6H125.283V16.212L128.811 12H133.131L129.015 16.932L133.107 24Z" fill="#454140"/>
</svg>
