<svg width="32" height="32" viewBox="0 0 32 32" fill="none" xmlns="http://www.w3.org/2000/svg">
<path d="M21.588 2.66699H10.4146C5.5613 2.66699 2.66797 5.56033 2.66797 10.4137V21.5737C2.66797 26.4403 5.5613 29.3337 10.4146 29.3337H21.5746C26.428 29.3337 29.3213 26.4403 29.3213 21.587V10.4137C29.3346 5.56033 26.4413 2.66699 21.588 2.66699ZM12.148 22.5337C12.148 22.907 11.8546 23.2003 11.4813 23.2003H7.7613C7.38797 23.2003 7.09464 22.907 7.09464 22.5337V16.3737C7.09464 15.5337 7.77464 14.8537 8.61464 14.8537H11.4813C11.8546 14.8537 12.148 15.147 12.148 15.5203V22.5337ZM18.5213 22.5337C18.5213 22.907 18.228 23.2003 17.8546 23.2003H14.1346C13.7613 23.2003 13.468 22.907 13.468 22.5337V10.3203C13.468 9.48032 14.148 8.80032 14.988 8.80032H17.0146C17.8546 8.80032 18.5346 9.48032 18.5346 10.3203V22.5337H18.5213ZM24.908 22.5337C24.908 22.907 24.6146 23.2003 24.2413 23.2003H20.5213C20.148 23.2003 19.8546 22.907 19.8546 22.5337V17.8003C19.8546 17.427 20.148 17.1337 20.5213 17.1337H23.388C24.228 17.1337 24.908 17.8137 24.908 18.6537V22.5337Z" fill="#120A0B"/>
</svg>
