<svg width="624" height="500" viewBox="0 0 624 500" fill="none" xmlns="http://www.w3.org/2000/svg">
<path opacity="0.25" d="M323.507 701.469C318.291 701.518 316.454 702.42 314.443 702.037C187.555 647.142 94.5072 557.565 46.1496 426.603C33.8566 393.563 30.3672 358.026 34.6593 322.093C43.1908 244.997 98.4495 185.165 174.149 170.368C213.558 162.432 252.639 161.741 290.216 178.93C295.297 197.231 299.736 215.618 305.926 232.46C316.156 259.886 334.028 281.044 362.227 291.642C382.939 299.977 402.176 297.381 411.047 285.709C422.691 270.389 420.262 252.386 409.93 238.722C395.612 219.704 378.902 202.317 361.724 186.304C350.544 176.028 336.418 168.113 323.575 160.026C324.672 85.8973 389.119 45.7759 475.274 64.9214C479.227 74.8631 483.267 85.4478 487.862 95.303C505.805 131.509 533.435 157.242 573.731 165.554C589.173 168.707 605.464 168.473 616.467 153.24C624.697 141.654 622.268 123.651 609.579 107.031C589.089 80.9894 561.392 64.4311 532.117 50.7044C521.718 46.2154 511.319 41.7263 501.006 37.8802C498.648 -76.3733 588.563 -169.688 693.386 -138.003C691.617 -146.276 691.304 -153.435 688.218 -156.947C684.405 -161.015 677.004 -162.636 671.059 -163.143C615.167 -166.076 565.377 -152.811 529.076 -107.322C501.647 -73.5045 485.344 -34.6418 476.79 8.41301C475.647 14.4595 474.504 20.5059 472.72 26.6389C472.807 27.2819 471.611 28.0979 469.307 30.373C463.449 30.5087 456.395 31.4605 449.168 31.1263C361.421 29.2176 319.658 58.4218 290.747 144.16C282.705 142.626 273.381 141.266 264.611 139.175C212.981 129.12 163.432 134.496 115.672 157.963C37.8794 195.957 -5.24456 273.138 0.957311 362.649C4.25817 411.306 18.8409 456.476 42.2274 499.149C99.2112 602.104 180.003 678.277 291.431 720.2C296.995 722.723 303.113 724.516 308.676 727.039C309.404 727.595 310.219 728.795 312.663 732.393C291.556 740.479 270.776 741.319 250.083 742.801C230.118 744.841 209.338 745.681 187.363 747.336C191.542 763.794 201.387 769.013 212.809 771.4C226.154 773.528 239.673 776.941 252.584 775.854C287.384 772.467 322.739 768.351 357.746 761.664C385.059 756.014 390.758 740.187 375.538 719.326C342.827 675.293 309.475 631.345 276.123 587.398C270.593 580.288 263.955 574.637 255.687 566.587C245.412 582.377 251.93 591.972 257.72 601.011C280.359 633.31 301.075 665.868 323.507 701.469ZM594.627 136.546C549.601 136.729 518.211 112.158 510.908 72.5524C543.007 87.8621 573.564 101.416 594.627 136.546ZM391.339 265.454C352.291 261.557 330.866 238.26 329.421 198.519C356.564 215.807 380.328 232.241 391.339 265.454Z" fill="white"/>
</svg>
