<svg width="32" height="32" viewBox="0 0 32 32" fill="none" xmlns="http://www.w3.org/2000/svg">
<path d="M21.586 2.66699H10.4127C5.55935 2.66699 2.66602 5.56033 2.66602 10.4137V21.5737C2.66602 26.4403 5.55935 29.3337 10.4127 29.3337H21.5727C26.426 29.3337 29.3193 26.4403 29.3193 21.587V10.4137C29.3327 5.56033 26.4394 2.66699 21.586 2.66699ZM20.9993 21.0003H10.9993C10.4527 21.0003 9.99935 20.547 9.99935 20.0003C9.99935 19.4537 10.4527 19.0003 10.9993 19.0003H20.9993C21.546 19.0003 21.9993 19.4537 21.9993 20.0003C21.9993 20.547 21.546 21.0003 20.9993 21.0003ZM20.9993 13.0003H10.9993C10.4527 13.0003 9.99935 12.547 9.99935 12.0003C9.99935 11.4537 10.4527 11.0003 10.9993 11.0003H20.9993C21.546 11.0003 21.9993 11.4537 21.9993 12.0003C21.9993 12.547 21.546 13.0003 20.9993 13.0003Z" fill="#FFD86F"/>
</svg>
