<svg width="32" height="32" viewBox="0 0 32 32" fill="none" xmlns="http://www.w3.org/2000/svg">
<path d="M29.3327 10.4137V16.667H23.8927C23.7327 16.6537 23.386 16.4537 23.306 16.307L21.9193 13.6803C21.3727 12.6403 20.426 12.0537 19.4127 12.107C18.3993 12.1603 17.5327 12.8403 17.0927 13.947L15.2527 18.5603L14.986 17.867C14.3327 16.1737 12.466 14.8937 10.626 14.8937L2.66602 14.9337V10.4137C2.66602 5.56033 5.55935 2.66699 10.4127 2.66699H21.586C26.4393 2.66699 29.3327 5.56033 29.3327 10.4137Z" fill="white"/>
<path d="M29.3327 21.5862V18.6662H23.8927C22.9993 18.6662 21.946 18.0262 21.5327 17.2395L20.146 14.6129C19.7727 13.9062 19.2393 13.9462 18.946 14.6795L15.8793 22.4262C15.546 23.2929 14.986 23.2929 14.6393 22.4262L13.1193 18.5862C12.7593 17.6529 11.6393 16.8929 10.6393 16.8929L2.66602 16.9329V21.5862C2.66602 26.3595 5.46602 29.2395 10.1727 29.3195C10.3193 29.3329 10.4793 29.3329 10.626 29.3329H21.2927C21.4927 29.3329 21.6927 29.3329 21.8793 29.3195C26.5593 29.2129 29.3327 26.3462 29.3327 21.5862Z" fill="white"/>
<path d="M2.66695 16.9336V21.3469C2.64029 20.9203 2.62695 20.4669 2.62695 20.0003V16.9336H2.66695Z" fill="white"/>
</svg>
