<svg width="40" height="44" viewBox="0 0 40 44" fill="none" xmlns="http://www.w3.org/2000/svg">
<path d="M39.8679 10.6046C38.272 9.86878 36.4952 9.45833 34.6225 9.45833C27.6959 9.45833 22.0808 15.0734 22.0808 22C22.0808 28.9266 27.6959 34.5417 34.6225 34.5417C36.4952 34.5417 38.272 34.1312 39.8679 33.3954C36.0674 39.4642 29.3214 43.5 21.6328 43.5C9.75869 43.5 0.132812 33.8741 0.132812 22C0.132812 10.1259 9.75869 0.5 21.6328 0.5C29.3214 0.5 36.0674 4.53584 39.8679 10.6046Z" fill="white"/>
<path d="M39.8679 22C39.8679 24.897 37.5194 27.2455 34.6224 27.2455C31.7254 27.2455 29.3769 24.897 29.3769 22C29.3769 19.103 31.7254 16.7545 34.6224 16.7545C37.5194 16.7545 39.8679 19.103 39.8679 22Z" fill="white"/>
</svg>
