<svg width="38" height="44" viewBox="0 0 38 44" fill="none" xmlns="http://www.w3.org/2000/svg">
<path d="M17.6301 0.867157C18.478 0.377614 19.5227 0.377615 20.3706 0.867157L36.6168 10.2469C37.4647 10.7365 37.9871 11.6412 37.9871 12.6202V23.0909L20.7804 13.1753C19.9608 12.703 18.9135 12.9845 18.4412 13.8041C17.9689 14.6237 18.2504 15.6711 19.07 16.1434L37.9871 27.0446V31.3798C37.9871 32.3588 37.4647 33.2635 36.6168 33.7531L20.3706 43.1328C19.5227 43.6224 18.478 43.6224 17.6301 43.1328L1.38392 33.7531C0.536007 33.2635 0.0136719 32.3588 0.0136719 31.3798V20.941L17.1066 30.8235C17.9255 31.297 18.9732 31.0169 19.4467 30.198C19.9202 29.379 19.6401 28.3313 18.8212 27.8579L0.0136719 16.9841V12.6202C0.0136719 11.6412 0.536007 10.7365 1.38392 10.2469L17.6301 0.867157Z" fill="white"/>
</svg>
