<svg width="44" height="44" viewBox="0 0 44 44" fill="none" xmlns="http://www.w3.org/2000/svg">
<path d="M22 43.5C33.8741 43.5 43.5 33.8741 43.5 22C43.5 10.1259 33.8741 0.5 22 0.5C20.6238 0.5 19.2777 0.629308 17.9733 0.876443V13.4968C19.1941 12.9177 20.5591 12.5938 22 12.5938C27.1949 12.5938 31.4062 16.8051 31.4062 22C31.4062 27.1949 27.1949 31.4062 22 31.4062C16.8051 31.4062 12.5938 27.1949 12.5938 22C12.5938 21.9007 12.5952 21.8018 12.5983 21.7032V2.65914C5.43572 6.14741 0.5 13.4973 0.5 22C0.5 33.8741 10.1259 43.5 22 43.5Z" fill="white"/>
<path d="M22 26.0312C19.8387 26.0312 18.0747 24.3304 17.9733 22.1942V21.8058C18.0747 19.6696 19.8387 17.9688 22 17.9688C24.2264 17.9688 26.0312 19.7736 26.0312 22C26.0312 24.2264 24.2264 26.0312 22 26.0312Z" fill="white"/>
</svg>
