<svg width="127" height="32" viewBox="0 0 127 32" fill="none" xmlns="http://www.w3.org/2000/svg">
<path fill-rule="evenodd" clip-rule="evenodd" d="M0 13.0101C2.19135 15.5634 4.62858 16.0268 7.38217 13.8001C8.45437 12.8518 13.7447 7.52511 18.8244 12.6934C22.2509 9.29011 26.0139 9.92679 30.0029 13.2735C31.5144 14.4851 33.975 17.1218 37.7012 13.1151C37.4025 18.5635 32.6746 22.3768 25.5737 21.3934C22.7154 20.9268 20.5577 19.3284 18.8771 17.3851C15.4286 20.9968 13.0277 22.4051 6.59128 21.0768C2.23183 19.6868 0.317067 17.1751 0 13.0101Z" fill="#120A0B"/>
<path d="M46.1812 10.84V7.24H60.1492V10.84H55.1092V25H51.2212V10.84H46.1812ZM63.3325 25H59.2765L65.6125 7.24H69.4045L75.7165 25H71.5885L70.3405 21.256H64.6045L63.3325 25ZM67.0045 14.2L65.7325 17.992H69.2365L67.9645 14.2C67.7725 13.6 67.5565 12.904 67.4845 12.472C67.4125 12.88 67.2205 13.552 67.0045 14.2ZM80.6763 25H76.6203L82.9563 7.24H86.7483L93.0603 25H88.9323L87.6843 21.256H81.9483L80.6763 25ZM84.3483 14.2L83.0763 17.992H86.5803L85.3083 14.2C85.1163 13.6 84.9003 12.904 84.8283 12.472C84.7563 12.88 84.5643 13.552 84.3483 14.2ZM94.1433 12.4C94.1433 9.184 96.8553 6.904 100.671 6.904C104.487 6.904 106.887 9.016 106.887 12.376H103.023C103.023 11.128 102.087 10.36 100.623 10.36C99.0393 10.36 98.0313 11.08 98.0313 12.256C98.0313 13.336 98.5833 13.864 99.8313 14.128L102.495 14.68C105.663 15.328 107.175 16.84 107.175 19.648C107.175 23.08 104.487 25.312 100.407 25.312C96.4473 25.312 93.8793 23.176 93.8793 19.84H97.7433C97.7433 21.136 98.7033 21.856 100.431 21.856C102.183 21.856 103.287 21.16 103.287 20.032C103.287 19.048 102.831 18.544 101.655 18.304L98.9433 17.752C95.7753 17.104 94.1433 15.304 94.1433 12.4ZM113.64 25H109.752V7.24H113.64V14.248H120.504V7.24H124.392V25H120.504V17.848H113.64V25Z" fill="#120A0B"/>
</svg>
