<svg width="144" height="25" viewBox="0 0 144 25" fill="none" xmlns="http://www.w3.org/2000/svg">
<g clip-path="url(#clip0_12914_2026)">
<path d="M11.0625 8.1875V0.500001H7.5C3.35786 0.500001 0 3.85787 0 8V11.5625H7.6875C9.55146 11.5625 11.0625 10.0515 11.0625 8.1875Z" fill="#9886FE"/>
<path d="M0 13.4375V17C0 21.1421 3.35786 24.5 7.5 24.5H11.0625V16.8125C11.0625 14.9485 9.55146 13.4375 7.6875 13.4375H0Z" fill="#9886FE"/>
<path d="M12.9375 24.5H24V13.4375L16.3125 13.4375C14.4485 13.4375 12.9375 14.9485 12.9375 16.8125V24.5Z" fill="#9886FE"/>
<path d="M24 11.5625V8C24 3.85787 20.6421 0.500001 16.5 0.500001L12.9375 0.5V8.1875C12.9375 10.0515 14.4485 11.5625 16.3125 11.5625L24 11.5625Z" fill="#9886FE"/>
</g>
<path d="M37.2665 22.081V6.55028H32V2.52793H46.9766V6.55028H41.6827V22.081H37.2665Z" fill="#120A0B"/>
<path d="M52.3044 22.4441C48.3545 22.4441 46.0779 19.3994 46.0779 15.3492C46.0779 11.3268 48.5191 8.25419 52.3593 8.25419C54.2794 8.25419 55.788 9.17598 56.5012 10.5447V8.61732H60.6705V22.081H56.5012V20.1816C55.788 21.5223 54.1422 22.4441 52.3044 22.4441ZM53.5113 18.8966C55.596 18.8966 56.6657 17.3045 56.6657 15.3492C56.6657 13.4218 55.596 11.8296 53.5113 11.8296C51.5638 11.8296 50.3569 13.3101 50.3569 15.3492C50.3569 17.3883 51.5638 18.8966 53.5113 18.8966Z" fill="#120A0B"/>
<path d="M69.4486 22.5C65.581 22.5 63.1947 20.5726 63.1947 18.0307H67.364C67.364 18.9525 68.2417 19.6229 69.5309 19.6229C70.4361 19.6229 71.067 19.148 71.067 18.3659C71.067 17.8352 70.8201 17.3883 70.1069 17.2207L66.8702 16.3827C64.6759 15.824 63.5512 14.4274 63.5512 12.5C63.5512 9.98603 65.7182 8.22626 69.2018 8.22626C73.0693 8.22626 75.0991 9.8743 75.0991 12.4162H70.9573C70.9573 11.4665 70.2715 10.9358 69.1469 10.9358C68.2417 10.9358 67.6383 11.3827 67.6383 12.0531C67.6383 12.6676 68.0497 13.0587 68.7629 13.2542L71.8899 14.1201C73.9197 14.6788 75.2363 15.9358 75.2363 17.8631C75.2363 20.6285 73.0693 22.5 69.4486 22.5Z" fill="#120A0B"/>
<path d="M91.3656 22.081H86.2362L82.0395 16.243V22.081H77.8428V2.52793H82.0395V14.2318L86.346 8.61732H91.2833L86.0168 14.986L91.3656 22.081Z" fill="#120A0B"/>
<path d="M93.7841 22.081V2.52793H98.2277V10.433H104.866V2.52793H109.309V22.081H104.866V14.3156H98.2277V22.081H93.7841Z" fill="#120A0B"/>
<path d="M117.652 22.4441C114.47 22.4441 112.77 20.433 112.77 16.9413V8.61732H117.021V15.9916C117.021 17.8352 117.625 18.8408 119.216 18.8408C120.998 18.8408 121.767 17.6676 121.767 15.852V8.61732H125.936V22.081H121.767V20.1536C121.026 21.5782 119.654 22.4441 117.652 22.4441Z" fill="#120A0B"/>
<path d="M137.911 8.25419C141.531 8.25419 144 11.1034 144 15.3492C144 19.567 141.449 22.4441 137.801 22.4441C135.853 22.4441 134.262 21.4385 133.604 20.1816V22.081H129.407V2.5H133.604V10.5447C134.29 9.25978 135.936 8.25419 137.911 8.25419ZM136.594 18.8966C138.432 18.8966 139.721 17.4441 139.721 15.3492C139.721 13.2821 138.432 11.8296 136.594 11.8296C134.701 11.8296 133.412 13.2542 133.412 15.3492C133.412 17.4721 134.729 18.8966 136.594 18.8966Z" fill="#120A0B"/>
<defs>
<clipPath id="clip0_12914_2026">
<rect width="24" height="24" fill="white" transform="translate(0 0.5)"/>
</clipPath>
</defs>
</svg>
