<svg width="144" height="24" viewBox="0 0 144 24" fill="none" xmlns="http://www.w3.org/2000/svg">
<g clip-path="url(#clip0_12914_273)">
<path d="M11.0625 7.6875V1.43051e-06H7.5C3.35786 1.43051e-06 0 3.35787 0 7.5V11.0625H7.6875C9.55146 11.0625 11.0625 9.55146 11.0625 7.6875Z" fill="#9886FE"/>
<path d="M0 12.9375V16.5C0 20.6421 3.35786 24 7.5 24H11.0625V16.3125C11.0625 14.4485 9.55146 12.9375 7.6875 12.9375H0Z" fill="#9886FE"/>
<path d="M12.9375 24H24V12.9375L16.3125 12.9375C14.4485 12.9375 12.9375 14.4485 12.9375 16.3125V24Z" fill="#9886FE"/>
<path d="M24 11.0625V7.5C24 3.35787 20.6421 1.43051e-06 16.5 1.43051e-06L12.9375 0V7.6875C12.9375 9.55146 14.4485 11.0625 16.3125 11.0625L24 11.0625Z" fill="#9886FE"/>
</g>
<path d="M37.2665 21.581V6.05028H32V2.02793H46.9766V6.05028H41.6827V21.581H37.2665Z" fill="#F8F4F1"/>
<path d="M52.3044 21.9441C48.3545 21.9441 46.0779 18.8994 46.0779 14.8492C46.0779 10.8268 48.5191 7.75419 52.3593 7.75419C54.2794 7.75419 55.788 8.67598 56.5012 10.0447V8.11732H60.6705V21.581H56.5012V19.6816C55.788 21.0223 54.1422 21.9441 52.3044 21.9441ZM53.5113 18.3966C55.596 18.3966 56.6657 16.8045 56.6657 14.8492C56.6657 12.9218 55.596 11.3296 53.5113 11.3296C51.5638 11.3296 50.3569 12.8101 50.3569 14.8492C50.3569 16.8883 51.5638 18.3966 53.5113 18.3966Z" fill="#F8F4F1"/>
<path d="M69.4486 22C65.581 22 63.1947 20.0726 63.1947 17.5307H67.364C67.364 18.4525 68.2417 19.1229 69.5309 19.1229C70.4361 19.1229 71.067 18.648 71.067 17.8659C71.067 17.3352 70.8201 16.8883 70.1069 16.7207L66.8702 15.8827C64.6759 15.324 63.5512 13.9274 63.5512 12C63.5512 9.48603 65.7182 7.72626 69.2018 7.72626C73.0693 7.72626 75.0991 9.3743 75.0991 11.9162H70.9573C70.9573 10.9665 70.2715 10.4358 69.1469 10.4358C68.2417 10.4358 67.6383 10.8827 67.6383 11.5531C67.6383 12.1676 68.0497 12.5587 68.7629 12.7542L71.8899 13.6201C73.9197 14.1788 75.2363 15.4358 75.2363 17.3631C75.2363 20.1285 73.0693 22 69.4486 22Z" fill="#F8F4F1"/>
<path d="M91.3656 21.581H86.2362L82.0395 15.743V21.581H77.8428V2.02793H82.0395V13.7318L86.346 8.11732H91.2833L86.0168 14.486L91.3656 21.581Z" fill="#F8F4F1"/>
<path d="M93.7841 21.581V2.02793H98.2277V9.93296H104.866V2.02793H109.309V21.581H104.866V13.8156H98.2277V21.581H93.7841Z" fill="#F8F4F1"/>
<path d="M117.652 21.9441C114.47 21.9441 112.77 19.933 112.77 16.4413V8.11732H117.021V15.4916C117.021 17.3352 117.625 18.3408 119.216 18.3408C120.998 18.3408 121.767 17.1676 121.767 15.352V8.11732H125.936V21.581H121.767V19.6536C121.026 21.0782 119.654 21.9441 117.652 21.9441Z" fill="#F8F4F1"/>
<path d="M137.911 7.75419C141.531 7.75419 144 10.6034 144 14.8492C144 19.067 141.449 21.9441 137.801 21.9441C135.853 21.9441 134.262 20.9385 133.604 19.6816V21.581H129.407V2H133.604V10.0447C134.29 8.75978 135.936 7.75419 137.911 7.75419ZM136.594 18.3966C138.432 18.3966 139.721 16.9441 139.721 14.8492C139.721 12.7821 138.432 11.3296 136.594 11.3296C134.701 11.3296 133.412 12.7542 133.412 14.8492C133.412 16.9721 134.729 18.3966 136.594 18.3966Z" fill="#F8F4F1"/>
<defs>
<clipPath id="clip0_12914_273">
<rect width="24" height="24" fill="white"/>
</clipPath>
</defs>
</svg>
