<svg width="740" height="1087" viewBox="0 0 740 1087" fill="none" xmlns="http://www.w3.org/2000/svg">
<path opacity="0.1" d="M348.691 996.803C354.534 997.273 356.521 998.431 358.804 998.161C505.386 946.736 616.799 853.747 681.419 710.82C697.827 674.768 704.566 635.217 702.615 594.603C699.189 507.518 642.02 436.063 558.357 413.454C514.82 401.422 471.074 397.538 427.592 413.812C420.441 433.918 414.002 454.173 405.724 472.555C392.076 502.479 370.362 524.77 337.914 534.403C314.038 542.097 292.684 537.656 283.67 523.869C271.84 505.772 275.995 485.788 288.662 471.296C306.223 451.121 326.335 432.965 346.861 416.385C360.21 405.757 376.671 398.012 391.709 389.97C396.38 306.802 327.343 256.706 229.26 271.307C224.038 282.134 218.668 293.676 212.735 304.355C189.743 343.505 156.728 370.147 110.905 376.255C93.3465 378.56 75.1066 377.001 63.9877 359.053C55.6856 345.413 59.8413 325.429 75.3853 307.812C100.422 280.256 132.782 263.903 166.684 250.849C178.696 246.645 190.709 242.442 202.573 238.952C214.31 111.089 120.963 -0.651202 0.960331 26.5168C3.60149 17.3863 4.52221 9.38723 8.25981 5.69687C12.8576 1.44079 21.2808 0.21396 27.9837 0.118567C90.8596 1.27953 145.606 20.1094 182.67 73.9813C210.72 114.065 225.898 158.919 232.059 207.854C232.858 214.721 233.658 221.589 235.169 228.604C235.021 229.318 236.296 230.328 238.698 233.061C245.252 233.679 253.082 235.307 261.208 235.508C359.704 240.353 404.185 276.408 429.764 374.801C438.899 373.722 449.458 372.939 459.453 371.294C518.119 364.134 573.223 374.103 624.883 404.205C709.045 452.978 751.234 542.912 737.159 642.739C729.587 697.009 709.648 746.473 680.041 792.438C607.982 903.29 511.371 982.232 383.15 1020.35C376.714 1022.73 369.714 1024.26 363.278 1026.64C362.418 1027.21 361.409 1028.49 358.383 1032.32C381.396 1043.07 404.619 1045.66 427.693 1048.97C449.906 1052.85 473.128 1055.44 497.626 1059.04C491.632 1077.16 480.182 1082.22 467.192 1083.99C452.066 1085.31 436.643 1088.06 422.259 1085.81C383.526 1079.25 344.23 1071.82 305.527 1061.54C275.366 1053.04 270.238 1034.84 288.956 1012.68C329.122 965.928 369.999 919.328 410.876 872.728C417.64 865.2 425.53 859.394 435.437 851.03C445.696 869.544 437.627 879.78 430.418 889.45C402.474 923.847 376.665 958.689 348.691 996.803ZM89.7935 342.081C140.242 345.87 177.379 320.83 188.716 277.023C151.522 291.627 116.196 304.385 89.7935 342.081ZM307.371 502.736C351.444 501.476 377.311 477.071 382.093 432.646C350.296 449.861 322.355 466.389 307.371 502.736Z" fill="white"/>
</svg>
