<svg width="600" height="792" viewBox="0 0 600 792" fill="none" xmlns="http://www.w3.org/2000/svg">
<path opacity="0.1" d="M602.326 702.067C598.057 706.083 597.228 708.228 595.276 709.444C448.683 760.834 303.594 757.799 163.859 686.539C128.529 668.631 98.5626 641.953 74.7197 609.017C23.0037 538.867 23.0217 447.356 74.2383 377.445C100.724 340.857 132.462 310.501 176.585 296.053C194.727 307.288 212.406 319.084 230.352 328.27C259.701 343.116 290.581 346.962 321.938 334.219C345.39 325.314 359.293 308.51 357.721 292.112C355.658 270.59 339.93 257.579 320.987 254.173C294.671 249.385 267.625 247.767 241.239 247.639C224.177 247.676 206.483 251.909 189.716 255.021C134.124 192.987 156.75 110.745 242.469 60.8872C253.31 66.0818 264.712 71.741 276.016 76.3755C318.424 92.5899 360.847 92.7761 400.448 68.9258C415.601 59.76 428.872 47.1502 426.345 26.1885C424.309 10.351 408.582 -2.66067 385.44 -6.70992C348.677 -12.5929 313.191 -5.15272 278.561 5.82663C266.554 10.0466 254.548 14.2665 243.103 18.9511C154.076 -73.5747 157.186 -219.141 267.873 -272.875C260.107 -278.356 254.392 -284.028 249.168 -284.576C242.919 -285.028 235.575 -280.725 230.281 -276.613C181.902 -236.436 150.908 -187.537 155.609 -122.316C158.738 -73.4919 174.9 -28.9835 200.652 13.0807C204.317 18.9435 207.982 24.8063 211.183 31.2292C211.745 31.6939 211.38 33.2787 211.211 36.9135C206.479 41.4901 201.381 47.6518 195.16 52.8841C121.264 118.185 109.045 174.125 150.523 266.942C142.715 271.805 133.98 277.789 125.147 282.747C74.8589 313.796 38.0512 355.999 16.5074 411.773C-18.7576 502.429 4.46474 599.014 77.8065 668.184C117.616 705.838 164.082 732.014 215.912 749.419C341.424 790.984 466.179 792.293 590.121 741.978C596.637 739.82 603.055 736.638 609.571 734.48C610.596 734.385 612.183 734.754 616.943 735.862C605.68 758.624 589.165 775.155 573.212 792.15C558.284 809.05 541.769 825.581 524.889 843.697C540.883 854.099 552.988 850.903 564.236 844.169C576.875 835.754 590.637 828.269 600.467 817.531C626.616 788.212 652.666 757.868 676.47 725.666C694.713 700.185 687.355 682.775 658.891 677.154C598.325 665.732 537.297 654.87 476.268 644.009C466.283 642.353 456.496 642.748 443.534 642.404C447.086 663.27 459.781 666.224 471.45 669.273C514.757 678.683 556.674 689.773 602.326 702.067ZM395.591 29.0519C358.559 63.52 313.918 67.1595 277.703 40.0284C315.871 28.2026 351.428 16.103 395.591 29.0519ZM326.013 290.412C290.807 316.955 255.363 314.051 223.881 282.343C259.465 275.928 291.609 271.384 326.013 290.412Z" fill="white"/>
</svg>
