<svg width="23" height="23" viewBox="0 0 23 23" fill="none" xmlns="http://www.w3.org/2000/svg">
<g filter="url(#filter0_b_10769_1028)">
<path d="M19.1792 9.67448C20.1772 6.72105 20.6762 5.24434 20.3288 4.26521C20.0266 3.41329 19.3564 2.74305 18.5045 2.44084C17.5253 2.0935 16.0486 2.59249 13.0952 3.59047L7.41069 5.51131C4.98407 6.33128 3.77077 6.74127 3.21078 7.49997C2.72175 8.16252 2.52658 8.99696 2.67101 9.80768C2.83639 10.736 3.74199 11.6416 5.55317 13.4528L9.31685 17.2165C11.128 19.0277 12.0336 19.9333 12.962 20.0987C13.7727 20.2431 14.6071 20.0479 15.2697 19.5589C16.0284 18.9989 16.4384 17.7856 17.2584 15.359L19.1792 9.67448Z" fill="#120A0B"/>
<path d="M21.2713 3.93088C21.5466 4.70691 21.4465 5.56229 21.231 6.46232C21.0143 7.36751 20.6281 8.51029 20.1434 9.94467L20.1266 9.99461L18.2057 15.6791L18.1896 15.727C17.7933 16.8997 17.4737 17.8454 17.1553 18.564C16.8331 19.2913 16.454 19.9276 15.8636 20.3635C14.9801 21.0155 13.8676 21.2757 12.7866 21.0832C12.0641 20.9544 11.4421 20.5523 10.8307 20.0434C10.2266 19.5405 9.52072 18.8346 8.64545 17.9593L8.60974 17.9236L4.84606 14.1599L4.81035 14.1242C3.93507 13.249 3.22916 12.5431 2.72632 11.9389C2.21742 11.3275 1.81522 10.7056 1.68651 9.98307C1.49394 8.90211 1.75417 7.78952 2.4062 6.90612C2.84203 6.31563 3.47835 5.93662 4.20563 5.61435C4.92426 5.29592 5.87001 4.97636 7.04269 4.58011L7.09056 4.56394L12.7751 2.6431L12.825 2.62621C14.2594 2.14152 15.4022 1.75536 16.3073 1.53864C17.2074 1.32316 18.0628 1.22309 18.8388 1.49838C19.9747 1.90133 20.8683 2.79498 21.2713 3.93088Z" stroke="white" stroke-width="2"/>
</g>
<defs>
<filter id="filter0_b_10769_1028" x="-31.376" y="-31.6689" width="85.8145" height="85.8145" filterUnits="userSpaceOnUse" color-interpolation-filters="sRGB">
<feFlood flood-opacity="0" result="BackgroundImageFix"/>
<feGaussianBlur in="BackgroundImageFix" stdDeviation="16"/>
<feComposite in2="SourceAlpha" operator="in" result="effect1_backgroundBlur_10769_1028"/>
<feBlend mode="normal" in="SourceGraphic" in2="effect1_backgroundBlur_10769_1028" result="shape"/>
</filter>
</defs>
</svg>
