<svg width="368" height="95" viewBox="0 0 368 95" fill="none" xmlns="http://www.w3.org/2000/svg">
<path d="M202.28 59.72V61.16C202.28 72.776 196.904 78.152 187.784 78.152C178.184 78.152 174.344 72.392 174.344 61.832C174.344 57.416 174.824 53.96 175.208 51.944L183.944 52.712C183.56 54.92 183.272 58.184 183.272 60.776C183.272 66.92 184.232 69.032 187.016 69.032C189.512 69.032 190.376 67.016 190.376 62.504V60.488C190.376 54.92 189.128 49.832 182.792 42.152C176.648 34.76 174.344 28.808 174.344 20.456V19.304C174.344 9.8 177.8 2.79199 188.456 2.79199C198.632 2.79199 201.704 9.128 201.704 19.112C201.704 23.048 201.416 26.6 201.032 28.904L192.104 28.136C192.488 26.024 192.68 23.336 192.68 20.168C192.68 13.832 191.816 11.816 189.32 11.816C186.824 11.816 186.152 13.736 186.152 17.96V19.496C186.152 23.816 187.496 28.328 192.104 34.184C198.44 42.248 202.28 50.408 202.28 59.72ZM233.608 42.92C233.608 46.664 233.512 51.176 233.32 53.192H217.288V65.096C217.288 68.168 218.536 69.224 220.84 69.224C223.528 69.224 224.392 67.592 224.392 63.656C224.392 61.928 224.296 60.488 224.104 58.952L232.648 58.184C232.84 59.912 233.032 61.928 233.032 64.808C233.032 73.448 228.616 78.152 219.976 78.152C210.856 78.152 205.96 73.16 205.96 64.136V38.888C205.96 29.864 211.048 24.776 220.072 24.776C229.96 24.776 233.608 29.768 233.608 42.92ZM224.008 41.672C224.008 35.432 222.952 33.608 220.456 33.608C218.248 33.608 217.288 35.24 217.288 37.544V44.936H223.816C223.912 44.36 224.008 42.728 224.008 41.672ZM250.123 4.04V77H238.891V4.04H250.123ZM274.366 26.408H285.022L275.422 77H263.614L253.918 26.408H265.63L269.566 61.064H270.046L274.366 26.408ZM314.515 42.92C314.515 46.664 314.419 51.176 314.227 53.192H298.195V65.096C298.195 68.168 299.443 69.224 301.747 69.224C304.435 69.224 305.299 67.592 305.299 63.656C305.299 61.928 305.203 60.488 305.011 58.952L313.555 58.184C313.747 59.912 313.939 61.928 313.939 64.808C313.939 73.448 309.523 78.152 300.883 78.152C291.763 78.152 286.867 73.16 286.867 64.136V38.888C286.867 29.864 291.955 24.776 300.979 24.776C310.867 24.776 314.515 29.768 314.515 42.92ZM304.915 41.672C304.915 35.432 303.859 33.608 301.363 33.608C299.155 33.608 298.195 35.24 298.195 37.544V44.936H304.723C304.819 44.36 304.915 42.728 304.915 41.672ZM344.47 63.176V64.808C344.47 72.872 339.766 78.152 330.549 78.152C321.622 78.152 318.166 72.488 318.166 64.712C318.166 62.408 318.454 60.488 318.742 59.432L326.998 60.296C326.806 61.256 326.614 62.696 326.614 64.04C326.614 68.072 327.766 69.32 330.07 69.32C331.894 69.32 333.334 67.976 333.334 65.672V64.808C333.334 62.216 331.222 59.816 329.494 58.088L324.31 52.904C320.854 49.448 317.878 45.128 317.878 39.56V38.312C317.878 29.96 322.486 24.776 331.126 24.776C339.766 24.776 343.894 28.808 343.894 38.504C343.894 40.424 343.798 41.864 343.51 43.4L335.254 42.536C335.446 41.48 335.542 40.52 335.542 39.08C335.542 34.856 334.678 33.512 332.182 33.512C330.166 33.512 328.918 34.856 328.918 37.448V38.408C328.918 40.232 329.782 41.864 331.51 43.496L337.27 48.968C341.302 52.808 344.47 57.896 344.47 63.176Z" fill="white"/>
<path fill-rule="evenodd" clip-rule="evenodd" d="M0 35.8801C9.24702 46.6546 19.5317 48.61 31.151 39.2137C35.6756 35.212 57.9998 12.7348 79.4348 34.5439C93.8939 20.1826 109.773 22.8691 126.606 36.9913C132.984 42.1045 143.367 53.2306 159.091 36.3232C157.83 59.314 137.879 75.4054 107.916 71.2561C95.8538 69.2869 86.7491 62.542 79.6571 54.3418C65.105 69.5821 54.9743 75.5251 27.8138 69.9196C9.41784 64.0543 1.33794 53.4556 0 35.8801Z" fill="white"/>
</svg>
